<?xml version="1.0" encoding="UTF-8"?>
<svg viewBox="0 0 1300 1500" xmlns="http://www.w3.org/2000/svg" xmlnsV="https://vecta.io/nano" xmlnsXlink="http://www.w3.org/1999/xlink">
<style><![CDATA[.i{stroke:#000}.j{stroke-width:3}.k{stroke-miterlimit:10}.l{fill:none}.m{fill:#42afaa}.n{fill:#3c3840}.o{fill:#8fa3ac}.p{fill:#737e8a}.q{fill:#424146}]]></style>
<path class="o" d="M1145.9 1023.8c-.3.3-.4.6-.6.8-4 5.1-21.8 26.2-48.5 25.3-29.8-1.1-59.4-29.5-57.1-63.4.6-9.6 3.8-18.3 8.6-25.9 10.2-16 28-26.7 46.2-28.9 23.4-2.8 51.5 7.8 62.1 32.3 12.1 27.5-6.3 54-10.7 59.8z"/>
<path class="p" d="M1145.9 1023.8c-.3.3-.4.6-.6.8-4 5.1-21.8 26.2-48.5 25.3-29.8-1.1-59.4-29.5-57.1-63.4.6-9.6 3.8-18.3 8.6-25.9 2.1 7.2 4.4 12.8 6 16.5 6 13.9 11.5 26.8 25.2 36.4s28.7 11.3 35.1 12.1c9.6 1.1 17.1.3 21.1-.1 3.7-.5 7.1-1 10.2-1.7z" opacity=".75"/>
<path class="i j k l" d="m1156.7 963.9c12.7 29.1-8.5 57.1-11.4 60.7-4 5.1-21.8 26.2-48.5 25.3-29.8-1.1-59.4-29.5-57.1-63.4 2.1-29.9 28-51.6 54.8-54.8 23.4-2.9 51.6 7.7 62.2 32.2z"/>
<path class="m" d="M275.7 705.1c-8.1-8.4-21.2-24.9-47.5-57.8-12.5-15.6-17.9-22.8-21.5-34.7-1.6-5.3-8.4-30.5 4.5-54.6 7.3-13.6 17.4-20.3 34.1-31.1 20.7-13.4 37.8-19.5 62.1-28 52-18.3 72.2-16.7 79.6-15.9 9.1 1 16.7 1.8 24.3 5.3 42 19.3 50.1 104.3 37.9 166-8.8 44.7-37.9 126.1-81.1 128.1-17.7.8-42.6-25.2-92.4-77.3z"/>
<path d="M437 698.5c-14.2 40.3-37.9 82.4-68.9 83.9-17.7.8-42.6-25.2-92.4-77.3-8.1-8.5-21.2-24.9-47.5-57.8-12.4-15.6-17.9-22.8-21.5-34.7-1.6-5.3-8.4-30.5 4.5-54.6 4.7-8.8 10.6-14.7 18.7-20.7 7.4 13.3 16 24.8 25.3 37.3 24.8 33.3 49.9 53.3 65.2 65.2 14.3 11.2 39.5 30.9 74.2 45.5 15.9 6.8 29.9 10.8 42.4 13.2z" opacity=".4"/>
<g class="i j k">
<path class="l" d="M449.2 654.3c-2.5 12.7-6.6 28.3-12.3 44.2-14.2 40.3-37.9 82.4-68.9 83.9-17.7.8-42.6-25.2-92.4-77.3-8.1-8.5-21.2-24.9-47.5-57.8-12.4-15.6-17.9-22.8-21.5-34.7-1.6-5.3-8.4-30.5 4.5-54.6 4.7-8.8 10.6-14.7 18.7-20.7 4.4-3.3 9.5-6.6 15.4-10.4 20.7-13.4 37.8-19.5 62.1-28 52-18.3 72.2-16.7 79.6-15.9 9.1 1 16.7 1.8 24.3 5.3 42.1 19.3 50.2 104.4 38 166z"/>
<path class="m" d="m884.2 780.9c17.8 9.2 42.1-3.5 75.8-21.2 18.6-9.8 30-18.9 56.1-39.4 83.5-65.6 90.9-74.2 94-89.4 6-29.7-10.3-56.2-16.7-66.7-20.5-33.4-52.2-45.8-66.7-51.5-10.7-4.2-67-26.4-124.3 3-11 5.7-52.2 26.9-65.2 69.7-8.1 26.8 3.7 32.7 22.7 124.3 10.1 48.4 10.4 64 24.3 71.2z"/>
</g>
<path class="o" d="m325 684.8c0 13.5-4.4 25.9-11.8 36-11.1 15.1-28.9 24.9-49 24.9-33.6 0-60.8-27.3-60.8-60.9 0-20.1 9.8-38 24.8-49 10.1-7.4 22.5-11.8 36-11.8 33.6 0 60.8 27.3 60.8 60.8z"/>
<path class="p" d="m325 684.8c0 13.5-4.4 25.9-11.8 36-9.2-14.4-22.3-32-40.4-49.6-15.9-15.5-31.5-27-44.7-35.4 3.9-2.9 10.3-6.9 19.1-9.4 5.4-1.6 11.1-2.4 16.9-2.4 33.7 0 60.9 27.3 60.9 60.8z" opacity=".75"/>
<g class="i j">
<circle class="l" cx="264" cy="684.9" r="60.8"/>
<path class="k n" d="m528.5 829.9-16.9 26.8-21.9 34.7c-45-3.2-138.8-16.6-225.4-84.8-33.1-26.1-57.3-54-74.7-78.1l63.5-26.6 73.4-30.7 202 158.7zm295.8 13.6 16.9-26.8 21.9-34.7c45 3.2 138.8 16.6 225.4 84.8 33.1 26.1 57.3 54 74.7 78.1l-63.5 26.6-73.4 30.7-202-158.7z"/>
</g>
<use class="q" xlinkHref="#B"/>
<path class="n" d="M933 1339.5c-81.6 16.5-180.4 28.8-292.5 27.1-96.1-1.4-181.7-12.8-254.1-27.7-51.5-10.5-84.8-60.6-74.4-112.2l108.5-536.3c7.6-37.9 37.2-66.7 73.9-74.3l-5.4 22.3-36.8 143.9-42.4 168.3-10.2 43.8-4.9 21.7-6.7 30.6-12.6 61c-.4 2.2-.9 4.6-3.1 15.3l-3.4 17.1s-2.4 14.4 1.5 31.1c5.2 21.9 30.5 35.9 48.5 45.5 46.2 24.7 89.9 28.2 96.3 28.8 94.3 8.9 173-1.7 279.3-15.9 13.8-1.8 37.3-5.1 67.4-10.6 27.2-5 49.8-9.9 65.9-13.7l70.3-17.1 8.5 36.4c12.2 52.1-21 104.3-73.6 114.9z"/>
<use class="i j k l" xlinkHref="#B"/>
<use class="q" xlinkHref="#C"/>
<path class="n" d="M574.2 1393.2c13.3-2.3 24.9-7 44-15.7-2.2 16.8-4.3 22.9-5.8 26.8-3.6 9.2-7.2 18.1-16.1 26.4-13.2 12.2-28.7 14.4-33.9 15-4.1.5-16.5 1.7-30.8-3.5-4.5-1.6-18.7-7.4-33.8-26.3-15.5-19.4-21.1-39-26.3-58.6l-4.9-19.4c12 17.1 22.7 27.3 26.7 31 16.7 15.6 28.1 20.2 33.3 22 19.7 6.9 37.4 4.1 47.6 2.3zm262.9-37.7c-1.9 5.6-4 11.5-6.4 17.5-9.4 23.7-15.6 38.8-30.8 53.6-7.2 7-17.6 16.9-34.3 20.7-3.9.9-28.4 6-47-8.6-5.5-4.4-9-9.2-12.1-14.6-8.2-14.1-12.7-28.5-16.4-50.1 4.9 3.5 11 7.3 19.2 10.9 6.2 2.8 17.3 7.7 31.1 9.1 21.1 2.1 37-5.4 59.1-15.9-.2 0 14.1-6.8 37.6-22.6z"/>
<g class="i k l">
<path d="M533.3 1087.5c.1 54.3 1.5 111.2 4.5 170.3 3.4 65.9 8.7 128.8 15.1 188.4m234-337.9c-.3 48-2.7 100.3-8.3 156.1-6.9 68.1-17.5 130.3-29.7 185.6" stroke-width="2"/>
<use class="j" xlinkHref="#C"/>
</g>
<use class="q" xlinkHref="#D"/>
<path class="n" d="M889.2 1183.5c-56.1 17.3-139.1 35.9-240.5 34.4-91.7-1.4-167.2-18.8-220.3-35.4-.9-20.9-1.2-44.1-.4-69.3 8.4 8.7 17.1 16.9 23.6 21.8 15.8 12.1 48.9 26.1 150.5 38.4 35.6 4.3 93.7 11 170.5 3.5 0 0 55.8-5.5 114.5-20.6l2.1 27.2z"/>
<g class="i j k l">
<path d="M610.3 810.7c19.7 88.2 35.5 193.8 38.4 313.2.8 34.9.7 64.2-.6 96.3"/>
<use xlinkHref="#D"/>
</g>
<g class="i j" fill="#e6ae38">
<circle cx="648.3" cy="1131.8" r="18.6"/>
<circle cx="647" cy="1057.9" r="18.6"/>
<circle cx="637.7" cy="983.9" r="18.6"/>
</g>
<g class="k i j">
<path class="l" d="m653.62 707.04 106.45 116.08-126.54 116.05-106.45-116.08z"/>
<path class="m" d="M630.6 920.6l-85.1 23.5a575.74 575.74 0 0 1-.8-53.3c.6-18.3 2.1-35.3 4-50.8 23.7 6.6 58.2 23.9 81.8 30.6 3.7 20.2-3.5 29.8.1 50zm20.8 0l85.1 23.5a575.74 575.74 0 0 0 .8-53.3c-.6-18.3-2.1-35.3-4-50.8-23.7 6.6-58.2 23.9-81.8 30.6-3.8 20.2 3.5 29.8-.1 50z"/>
</g>
<circle class="i j m" cx="644.7" cy="895.5" r="30.3"/>
<use fill="#8fa2ac" xlinkHref="#E"/>
<path d="M455.9 511.6c-16.3 5-32.9 7.8-49.1 8-55 .8-109-27.7-125.3-36.4-24.1-12.8-53.2-28.6-78.8-61.7-16.3-21-40.6-52.6-40.4-94 .1-21.2 6.6-41.1-3-47.5-10.1-6.6-27.7 8.2-32.3 3-7.1-7.9 29.4-47.1 22.2-55.6-6.1-7.2-37.4 16.2-45.5 8.1-6.9-6.9 6.9-32.9 20.2-49.5l3.6-4.4c3.7 6.2 7.7 10.5 9.6 12.5 12.5 13.7 21.3 11.9 24.3 22.2 2.2 7.8-2.1 11.4 1 22.2 2.2 7.8 6.3 13 8.1 15.2 7.7 9.5 14.2 9.7 20.2 15.1 9.5 8.6 6.5 20.2 9.1 41.4 3.4 28.7 13.8 49.6 18.2 58.6 10.5 21.2 22.8 35.2 29.3 42.4 7.1 8 18.7 20.6 37.4 32.3 6 3.8 11.4 6.6 21.2 11.1 29.8 13.8 54.7 22.5 62.6 25.3 52.1 18 51.5 15.3 71.7 24.3 5.4 2.8 10.7 5.1 15.7 7.4z" fill="#767e8e"/>
<use class="i j k l" xlinkHref="#E"/>
<path d="M578 305.6c-7.6 66.2-73.5 127.1-139.9 143.4-40.9 10.1-76.5 1.8-87.9-1-14.3-3.5-52.7-13.4-86.9-47.5-9.9-9.9-32.7-33.1-43.4-71.7-11-39.3-3.1-71.5 0-83.9 12.1-47.4 41.3-75.3 51.5-84.9l6.5-5.8c21-17.7 40.2-25.9 45.2-27.9 33.8-13.8 63.1-12.4 76.6-11.6 11.6.7 36 2.4 63.4 15.1 37.7 17.5 58.2 45.1 73 65.5 20.7 28.5 40.2 55.4 42.4 90.9.4 6.5.2 13-.5 19.4z" fill="#f38eb0"/>
<path d="M578 305.6c-5.3-12.5-12.3-26.6-22-40.6-7.8-11.3-16.7-21.9-16.7-21.9-4.9-5.8-15.3-17.9-29.5-30.5-34.2-30.4-69.1-46.1-76.8-49.5-7.8-3.4-25.6-10.8-49.5-16.2-11.9-2.7-26.4-5.6-45.5-5.1-2.9.1-15 .5-31.3 4-10 2.2-19.7 5.1-28.9 8.4 21-17.7 40.2-25.9 45.2-27.9 33.8-13.8 63.1-12.4 76.6-11.6 11.6.7 36 2.4 63.4 15.1 37.7 17.5 58.2 45.1 73 65.5 20.7 28.5 40.2 55.4 42.4 90.9.5 6.5.3 13-.4 19.4z" fill="#b86f8f"/>
<path class="i j k l" d="M578 307.2c-7.6 66.2-73.5 127.1-139.9 143.4-40.9 10.1-76.5 1.8-87.9-1-14.3-3.5-52.7-13.4-86.9-47.5-9.9-9.9-32.7-33.1-43.4-71.7-11-39.3-3.1-71.5 0-83.9 12.1-47.4 41.3-75.3 51.5-84.9l6.5-5.8c21-17.7 40.2-25.9 45.2-27.9 33.8-13.8 63.1-12.4 76.6-11.6 11.6.7 36 2.4 63.4 15.1 37.7 17.5 58.2 45.1 73 65.5 20.7 28.5 40.2 55.4 42.4 90.9.4 6.6.2 13-.5 19.4z"/>
<use fill="#8fa2ac" xlinkHref="#F"/>
<path d="M844.1 510c16.3 5 32.9 7.8 49.1 8 55 .8 109-27.7 125.3-36.4 24.1-12.8 53.2-28.6 78.8-61.7 16.3-21 40.6-52.6 40.4-94-.1-21.2-6.6-41.1 3-47.5 10.1-6.6 27.7 8.2 32.3 3 7.1-7.9-29.4-47.1-22.2-55.6 6.1-7.2 37.4 16.2 45.5 8.1 6.9-6.9-6.9-32.9-20.2-49.5l-3.6-4.4c-3.7 6.2-7.7 10.5-9.6 12.5-12.5 13.7-21.3 11.9-24.3 22.2-2.2 7.8 2.1 11.4-1 22.2-2.2 7.8-6.3 13-8.1 15.2-7.7 9.5-14.2 9.7-20.2 15.1-9.5 8.6-6.5 20.2-9.1 41.4-3.4 28.7-13.8 49.6-18.2 58.6-10.5 21.2-22.8 35.2-29.3 42.4-7.1 8-18.7 20.6-37.4 32.3-6 3.8-11.4 6.6-21.2 11.1-29.8 13.8-54.7 22.5-62.6 25.3-52.1 18-51.5 15.3-71.7 24.3-5.4 2.7-10.7 5.1-15.7 7.4z" fill="#767e8e"/>
<use class="i j k l" xlinkHref="#F"/>
<path d="M722 303.9c7.6 66.2 73.5 127.1 139.9 143.4 40.9 10.1 76.5 1.8 87.9-1 14.3-3.5 52.7-13.4 86.9-47.5 9.9-9.9 32.7-33.1 43.4-71.7 11-39.3 3.1-71.5 0-83.9-12.1-47.4-41.3-75.3-51.5-84.9l-6.5-5.8c-21-17.7-40.2-25.9-45.2-27.9-33.8-13.8-63.1-12.4-76.6-11.6-11.6.7-36 2.4-63.4 15.1-37.7 17.5-58.2 45.1-73 65.5-20.7 28.5-40.2 55.4-42.4 90.9-.4 6.6-.2 13 .5 19.4z" fill="#f38eb0"/>
<path d="M722 303.9c5.3-12.5 12.3-26.6 22-40.6 7.8-11.3 16.7-21.9 16.7-21.9 4.9-5.8 15.3-17.9 29.5-30.5 34.2-30.4 69.1-46.1 76.8-49.5 7.8-3.4 25.6-10.8 49.5-16.2 11.9-2.7 26.4-5.6 45.5-5.1 2.9.1 15 .5 31.3 4 10 2.2 19.7 5.1 28.9 8.4-21-17.7-40.2-25.9-45.2-27.9-33.8-13.8-63.1-12.4-76.6-11.6-11.6.7-36 2.4-63.4 15.1-37.7 17.5-58.2 45.1-73 65.5-20.7 28.5-40.2 55.4-42.4 90.9-.5 6.6-.3 13 .4 19.4z" fill="#b86f8f"/>
<path class="i j k l" d="M722 305.6c7.6 66.2 73.5 127.1 139.9 143.4 40.9 10.1 76.5 1.8 87.9-1 14.3-3.5 52.7-13.4 86.9-47.5 9.9-9.9 32.7-33.1 43.4-71.7 11-39.3 3.1-71.5 0-83.9-12.1-47.4-41.3-75.3-51.5-84.9l-6.5-5.8c-21-17.7-40.2-25.9-45.2-27.9-33.8-13.8-63.1-12.4-76.6-11.6-11.6.7-36 2.4-63.4 15.1-37.7 17.5-58.2 45.1-73 65.5-20.7 28.5-40.2 55.4-42.4 90.9-.4 6.5-.2 13 .5 19.4z"/>
<use class="o" xlinkHref="#G"/>
<path d="m854.6 786c-3.1 1.9-6.2 3.7-9.3 5.5-17.6 10.3-46.5 27.1-88.4 39.4-76.2 22.4-139.4 13.6-169.7 9.1-23.5-3.5-60.8-9.4-103.8-28.2-7.1-38.8-12.8-71.1-11.4-115.8 2.2-73.9 21.9-128.3 27.3-142.5 21.6-57.2 48.9-91.1 59.1-103.1 20.3-23.8 36.7-42.5 65.2-50 35.7-9.3 66.4 5.2 74.3 9.1 7.6 3.7 29.9 15.8 59.1 62.1 18.9 30.1 30 57.6 44 100 13.1 40 26.9 82.3 40.9 150l12.7 64.4z" fill="#b1bdc6"/>
<path class="p" d="M961.5 683.9c-26.2 51.7-68.9 79.5-106.9 102.1-3.1 1.9-6.2 3.7-9.3 5.5-17.6 10.3-46.5 27.1-88.4 39.4-76.2 22.4-139.4 13.6-169.7 9.1-23.5-3.5-60.8-9.4-103.8-28.2-11.1-4.8-22.5-10.5-34.2-17.3-34.7-20-91.4-52.7-116.7-118.2-4.8-12.6-15.1-40.1-12.7-73.5l14.2 26.1c13.1 23.8 40.7 73.8 95.5 105.1 43.5 24.8 101.5 36.4 116.7 39.4 10.3 2 59.9 11.9 127.3 10.6 36.6-.7 60.6-1.3 93-8.6 23-5.2 73.7-17.2 125.3-56.6 14.1-10.7 39.5-30.4 61.6-63.7 13-19.5 21.5-38.4 27.2-55.3l.6 3.7c4.2 33.3-9.5 60.3-19.7 80.4z"/>
<use class="i j k l" x="0.6" xlinkHref="#G"/>
<g fill="#a58ba1">
<ellipse cx="457" cy="531.9" rx="49.8" ry="21.3" opacity=".6"/>
<ellipse cx="842" cy="531.9" rx="49.8" ry="21.3" opacity=".6"/>
</g>
<path d="M572 465.6c-2 4.7-6.4 7-6.8 7.2-13.2 6.7-25 9.8-47.2 8.9-22.9-.9-37.3-3.8-48.2-11.5-3.1-2.2-4.2-5.6-4.8-7.4-6-19.1 18.4-57.8 50-59.4 35.8-1.7 64.5 44.6 57 62.2z" fill="#2f2d3d"/>
<ellipse cx="510.5" cy="422.8" rx="16.2" ry="9" fill="#fffeff"/>
<path d="M845.4 465.6c-2 4.7-6.4 7-6.8 7.2-13.2 6.7-25 9.8-47.2 8.9-22.9-.9-37.3-3.8-48.2-11.5-3.1-2.2-4.2-5.6-4.8-7.4-6-19.1 18.4-57.8 50-59.4 35.9-1.7 64.6 44.6 57 62.2z" fill="#2f2d3d"/>
<ellipse cx="783.9" cy="422.8" rx="16.2" ry="9" fill="#fffeff"/>
<g fill="#312c3e">
<path d="M703.5 664.5v48.8c0 29.2-23.9 53.1-53.1 53.1s-53.1-23.9-53.1-53.1v-49.1c4.3.4 10.1.8 17.4-.8 13-2.9 21.4-10.2 23.3-11.9.2-.1.6-.6 1.3-1.3 2.9-2.9 9.4-10.5 13-21 3.5 10.5 10.1 18.1 12.9 21l1.3 1.3c2 1.8 10.3 9 23.3 11.9 5.3 1.2 9.9 1.3 13.7 1.1zM723 534.6c-.3 11.4-.5 21.4-4.5 33.7-2.7 8.4-6.9 21.2-17.9 31.1-11.4 10.2-24.7 12.4-38 13l-8.2.2h-1.7-1.6-1.3-.3c-2.6 0-5.3-.1-7.9-.2-13.9-.4-28.1-2.3-40-13.1-11-9.9-15.2-22.7-17.9-31.1-4-12.3-4.2-22.3-4.5-33.7-.3-9.3-.4-21.1 3.1-36 3.5-15.1 9.4-26.8 13.9-34.5 3.9-6.4 12.4-19.3 26.8-30.7 13.7-10.8 22.3-12.1 25-12.5.8-.1 1.9-.2 3-.3 1.2.1 2.2.1 3 .3 2.7.4 11.4 1.7 25 12.5 14.4 11.4 22.9 24.3 26.8 30.7 4.6 7.7 10.4 19.3 14 34.5 3.7 15 3.5 26.8 3.2 36.1z"/>
<path d="M768.2 601.3c0 .6 0 2.1-.2 3.9-.3 3.5-.8 6.1-1.2 7.8l-.6 2.5-1.5 5.1c-1.5 4.4-4.3 9.2-4.9 10.1-3.6 6-7.3 10.3-9.2 12.3-5.3 5.6-10.1 9-11.5 9.9-12.4 8.5-24.9 10.6-31.1 11.2-1.4.1-3 .3-4.7.4-3.7.2-8.3.1-13.7-1.1-13-2.9-21.4-10.2-23.3-11.9l-1.3-1.3c-2.8-2.9-9.4-10.5-12.9-21-3.5 10.5-10.1 18.1-13 21l-1.3 1.3c-1.9 1.8-10.3 9-23.3 11.9-7.3 1.6-13.2 1.2-17.4.8-.3 0-.6-.1-1-.1-6.1-.6-18.7-2.7-31.1-11.2-1.3-.9-6.2-4.3-11.5-9.9-1.9-2.1-5.6-6.3-9.2-12.3-.5-.9-3.4-5.7-4.9-10.1-.8-2.4-1.5-5.1-1.5-5.1-.1-.3-.3-1.2-.6-2.5-.3-1.7-.9-4.3-1.2-7.8-.2-1.9-.2-3.3-.2-3.9s0-2.3.1-4.5c.1-2.4.2-3.7.4-4.4.8-2.8 4.1-6.5 8.5-6.2 3.7.2 6.9 3 7.8 6.8-.1 1.3-.1 3.3 0 5.7.6 12.1 5.1 20.8 6.4 23.3 4.5 8.3 10.1 13.2 11.2 14.2 6.3 5.5 12.5 7.9 15.3 8.9 3.2 1.1 11.1 3.7 21.2 2.2 9.8-1.5 16.3-6.1 20.5-9 3.9-2.8 6-5.1 7.2-6.6.9-1.2 3-3.9 4.5-8 1.9-4.7 2.1-8.7 2.3-11v-.2l7.9.2h.3 1.3 1.6 1.7c2.7 0 5.5-.1 8.2-.2v.2c.1 2.3.4 6.3 2.3 11a35.08 35.08 0 0 0 4.5 8c1.2 1.6 3.3 3.9 7.2 6.6 4.1 3 10.6 7.5 20.5 9 10.1 1.5 18-1.1 21.2-2.2 2.9-1 9-3.5 15.3-8.9 1.1-1 6.7-5.9 11.2-14.2 1.4-2.5 5.8-11.2 6.5-23.3.1-2.4.1-4.3 0-5.7.9-3.9 4.1-6.6 7.8-6.8 4.5-.3 7.7 3.5 8.5 6.2.2.8.3 2 .4 4.4.5 2.2.5 3.8.5 4.5z"/>
</g>
<path d="M695.6 726.2c-.5 17.9-23.4 34.6-45.2 34.4-21.4-.2-44.1-16.5-44.3-34.4-.2-12.1 10-21.4 14-25.1 2.8-2.6 13.6-12.2 30.3-12.5 19.7-.3 32.1 12.6 34.1 14.8 3.7 4 11.3 12.2 11.1 22.8z" fill="#e71a23"/>
<ellipse transform="matrix(.9035 -.4286 .4286 .9035 -238.11 342.12)" cx="640.6" cy="699.8" rx="8.3" ry="4.7" fill="#ffbcc4"/>
<path class="k" d="M572.9 649.8c-.6.6-3 3-.8 13.8.6 2.9 3.6 21.5 9.9 21.4 4.2-.1 8.2-7.7 11-16.3 2.2-6.7 3.6-11.4 1.1-15-2.2-3.2-6.2-4-10-4.7s-8.5-1.6-11.2.8zm154.6 0c.6.6 3 3 .8 13.8-.6 2.9-3.6 21.5-9.9 21.4-4.2-.1-8.2-7.7-11-16.3-2.2-6.7-3.6-11.4-1.1-15 2.2-3.2 6.2-4 10-4.7 3.9-.7 8.5-1.6 11.2.8z" fill="#eceaf1" stroke="#312c3e" stroke-width="2"/>
<g fill="#eceef0">
<ellipse transform="matrix(.9476 -.3196 .3196 .9476 -26.569 188.16)" cx="560" cy="175" rx="38.2" ry="15.7" opacity=".8"/>
<circle cx="511.8" cy="197" r="6.3" opacity=".8"/>
</g>
</svg>
