<?xml version="1.0" encoding="UTF-8"?>
<svg enable-background="new 0 0 1300 1500" version="1.1" viewBox="0 0 1300 1500" xml:space="preserve" xmlns="http://www.w3.org/2000/svg">
<style type="text/css">
	.st0{display:none;}
	.st1{display:inline;fill:none;}
	.st2{display:inline;fill:none;stroke:#A28400;stroke-width:3;stroke-miterlimit:10;}
	.st3{display:inline;opacity:0.4;fill:#FF8CBA;}
	.st4{display:inline;}
	.st5{fill:none;}
	.st6{fill:#FF0166;stroke:#000000;stroke-width:3;stroke-miterlimit:10;}
	.st7{opacity:0.4;fill:#FF8CBA;}
	.st8{fill:#8FA3AC;}
	.st9{opacity:0.75;fill:#737E8A;}
	.st10{fill:none;stroke:#000000;stroke-width:3;stroke-miterlimit:10;}
	.st11{fill:#42AFAA;}
	.st12{opacity:0.4;}
	.st13{fill:#42AFAA;stroke:#000000;stroke-width:3;stroke-miterlimit:10;}
	.st14{fill:none;stroke:#000017;stroke-width:3;stroke-miterlimit:10;}
	.st15{fill:#3C3840;stroke:#000000;stroke-width:3;stroke-miterlimit:10;}
	.st16{fill:#424146;}
	.st17{fill:#3C3840;}
	.st18{fill:none;stroke:#000000;stroke-width:2;stroke-miterlimit:10;}
	.st19{fill:#E6AE38;stroke:#000000;stroke-width:3;stroke-miterlimit:10;}
	.st20{fill:#8FA2AC;}
	.st21{fill:#767E8E;}
	.st22{fill:#F38EB0;}
	.st23{fill:#B86F8F;}
	.st24{fill:#B1BDC6;}
	.st25{fill:#737E8A;}
	.st26{opacity:0.6;fill:#A58BA1;}
	.st27{fill:#2F2D3D;}
	.st28{fill:#FFFEFF;}
	.st29{fill:#312C3E;}
	.st30{fill:#E71A23;}
	.st31{fill:#FFBCC4;}
	.st32{fill:#ECEAF1;stroke:#312C3E;stroke-width:2;stroke-miterlimit:10;}
	.st33{opacity:0.8;fill:#ECEEF0;}
</style>
<g class="st0">
	<path class="st1" d="m-1531.8-2296.6c-0.6-0.1-0.5-1-2.4-4.7-0.6-1.2-1.2-2.3-2.4-4.5 0 0-2-3.5-4.3-7.2-7.5-12.2-15.8-22.3-15.8-22.3-15.5-19-33.1-32-33.1-32-16.9-12.4-31.8-18.5-41.7-22.5-24.8-9.9-45.3-12.7-56.6-14.2-28.6-3.7-50.5-1.6-55.7-1-5.1 0.6-24.6 2.8-49.1 11-27.4 9.1-46.3 20.7-51.7 24.1-23.1 14.6-38.5 30.1-46.2 38.5-5.5 6-19.7 22.2-32.8 46.7-7.3 13.6-16 33.1-21.8 57.7-6.9 29.8-6.3 53.2-5.8 68.3 1.3 37.1 9.3 64.7 13.8 79.8 10.6 35.9 24.5 61.3 34.2 78.9 11.5 20.8 21.9 35.9 31.1 49.2 19.7 28.5 36.4 48.2 40.1 52.5 17.4 20.4 31.2 33.7 51.8 53.6 33.6 32.4 60.9 55.1 67.6 60.6 5.4 4.4 41.1 33.8 84.4 63.4 19.9 13.6 45 29.6 47.6 31.3 0 0 14.2 8.8 24.8 15.6 0.7 0.5 4.6 3 8.3 5.4l3.3 2.2c1 0.6 2.2 1.5 3.9 2.6 1.8 1.2 2.8 1.8 3 2 2.6 1.8 2.7 2 3.4 2.3 1.2 0.4 2.7 0.3 5.3-0.9 1.9-0.8 3.2-1.6 4.6-2.5 1.5-1 1.9-1.5 3.1-2.4 2.5-1.8 4.5-2.8 5.7-3.4 2.9-1.5 9.6-5.7 22.8-14.2 10.2-6.6 17.9-11.6 18.9-12.2 21.4-14.1 32.1-21.1 42.9-28.6 15.3-10.6 25.9-18.7 40.1-29.5 14.7-11.2 30.6-23.2 51.1-40.4 6.5-5.4 23.2-19.6 44.2-39.2 13-12.1 25.6-23.8 41.4-40.5 12.2-12.9 28.7-30.3 47.5-55.5 3-4 13.7-18.4 26.2-38.3 11.3-17.9 19-32.2 21.9-37.6 4.9-9.1 11.2-21 18.2-37.2 4.2-9.7 9.8-22.8 15.1-40.8 5.1-17 7.6-30.7 8.6-36.9 1.7-10.1 4.6-27.6 4.4-50.7-0.2-23.5-3.6-41.4-4.9-47.8-5.2-25.9-13.5-45.4-18.3-55.6-10.9-23.1-23-39.3-28.9-46.7-14.1-17.7-27.2-28.8-30.6-31.6-17.1-14.3-32.2-22.2-41.4-27-23.6-12.2-43.6-17.7-51.6-19.8-22.7-5.8-42.2-7.2-55.9-7.4-23.7-0.3-42 3.1-49.8 4.7-11.3 2.3-33.1 7-58.2 20.7 0 0-21.3 11.6-38.3 27.3-5.9 5.4-11.8 11.8-11.8 11.8-5.2 5.7-8.7 10.1-9.6 11.1-1 1.3-3.4 4.3-6.3 8.4-2.1 3-4 5.7-5.8 8.6-5.5 9.5-6.8 17-8.5 16.8z"/>
	<path class="st2" d="m-1531.8-2296.6c-0.6-0.1-0.5-1-2.4-4.7-0.6-1.2-1.2-2.3-2.4-4.5 0 0-2-3.5-4.3-7.2-7.5-12.2-15.8-22.3-15.8-22.3-15.5-19-33.1-32-33.1-32-16.9-12.4-31.8-18.5-41.7-22.5-24.8-9.9-45.3-12.7-56.6-14.2-28.6-3.7-50.5-1.6-55.7-1-5.1 0.6-24.6 2.8-49.1 11-27.4 9.1-46.3 20.7-51.7 24.1-23.1 14.6-38.5 30.1-46.2 38.5-5.5 6-19.7 22.2-32.8 46.7-7.3 13.6-16 33.1-21.8 57.7-6.9 29.8-6.3 53.2-5.8 68.3 1.3 37.1 9.3 64.7 13.8 79.8 10.6 35.9 24.5 61.3 34.2 78.9 11.5 20.8 21.9 35.9 31.1 49.2 19.7 28.5 36.4 48.2 40.1 52.5 17.4 20.4 31.2 33.7 51.8 53.6 33.6 32.4 60.9 55.1 67.6 60.6 5.4 4.4 41.1 33.8 84.4 63.4 19.9 13.6 45 29.6 47.6 31.3 0 0 14.2 8.8 24.8 15.6 0.7 0.5 4.6 3 8.3 5.4l3.3 2.2c1 0.6 2.2 1.5 3.9 2.6 1.8 1.2 2.8 1.8 3 2 2.6 1.8 2.7 2 3.4 2.3 1.2 0.4 2.7 0.3 5.3-0.9 1.9-0.8 3.2-1.6 4.6-2.5 1.5-1 1.9-1.5 3.1-2.4 2.5-1.8 4.5-2.8 5.7-3.4 2.9-1.5 9.6-5.7 22.8-14.2 10.2-6.6 17.9-11.6 18.9-12.2 21.4-14.1 32.1-21.1 42.9-28.6 15.3-10.6 25.9-18.7 40.1-29.5 14.7-11.2 30.6-23.2 51.1-40.4 6.5-5.4 23.2-19.6 44.2-39.2 13-12.1 25.6-23.8 41.4-40.5 12.2-12.9 28.7-30.3 47.5-55.5 3-4 13.7-18.4 26.2-38.3 11.3-17.9 19-32.2 21.9-37.6 4.9-9.1 11.2-21 18.2-37.2 4.2-9.7 9.8-22.8 15.1-40.8 5.1-17 7.6-30.7 8.6-36.9 1.7-10.1 4.6-27.6 4.4-50.7-0.2-23.5-3.6-41.4-4.9-47.8-5.2-25.9-13.5-45.4-18.3-55.6-10.9-23.1-23-39.3-28.9-46.7-14.1-17.7-27.2-28.8-30.6-31.6-17.1-14.3-32.2-22.2-41.4-27-23.6-12.2-43.6-17.7-51.6-19.8-22.7-5.8-42.2-7.2-55.9-7.4-23.7-0.3-42 3.1-49.8 4.7-11.3 2.3-33.1 7-58.2 20.7 0 0-21.3 11.6-38.3 27.3-5.9 5.4-11.8 11.8-11.8 11.8-5.2 5.7-8.7 10.1-9.6 11.1-1 1.3-3.4 4.3-6.3 8.4-2.1 3-4 5.7-5.8 8.6-5.5 9.5-6.8 17-8.5 16.8z"/>
	<path class="st3" d="m-1709.8-2368.6c-58.9 0.4-101.3 30.4-114.3 39.9-9.3 6.8-48.9 36.8-72.3 92.8-26.2 62.6-15.7 118.4-9.7 149.9 10.6 56.1 34.2 98.3 37.8 97.1 3.8-1.2-18.9-49.2-16.2-118.7 0.8-20.8 2.9-58.2 22.7-99.2 2.6-5.4 46.1-92.5 141.3-121.9 54.8-16.9 98-5.9 99.2-14 1-7.3-41.1-26.2-88.5-25.9z"/>
	<path class="st3" d="m-1477.6-1730.3c-3.1-4.2 49.6-40.5 122.2-117.3 43.9-46.6 80.7-86 114.5-148 13.3-24.3 36.2-67.3 49.8-128.2 3.9-17.5 12.5-57.5 11.3-110-1.1-49.5-10.2-79.2-4.9-80.9 6.5-2 31.4 38.5 42.1 85.8 17.7 78.5-10.1 147.4-27.1 189.7-25.1 62.3-58 103.6-76.9 127-34.1 42.2-65.6 68.4-95.5 93-64.1 52.7-132 93.5-135.5 88.9z"/>
	<g class="st4">
		<path class="st5" d="m-2508.8-1703c-0.2 0-0.2-0.3-0.8-1.7-0.2-0.4-0.4-0.8-0.9-1.6 0 0-0.7-1.3-1.5-2.6-2.7-4.4-5.6-8-5.6-8-5.5-6.8-11.8-11.4-11.8-11.4-6-4.4-11.4-6.6-14.9-8-8.9-3.6-16.2-4.6-20.2-5.1-10.2-1.3-18-0.6-19.9-0.4-1.8 0.2-8.8 1-17.5 3.9-9.8 3.3-16.6 7.4-18.5 8.6-8.3 5.2-13.8 10.7-16.5 13.7-2 2.2-7.1 7.9-11.7 16.7-2.6 4.9-5.7 11.8-7.8 20.6-2.5 10.6-2.2 19-2.1 24.4 0.5 13.3 3.3 23.1 4.9 28.5 3.8 12.8 8.7 21.9 12.2 28.2 4.1 7.4 7.8 12.8 11.1 17.6 7 10.2 13 17.2 14.3 18.8 6.2 7.3 11.1 12.1 18.5 19.1 12 11.6 21.8 19.7 24.2 21.6 1.9 1.6 14.7 12.1 30.2 22.6 7.1 4.8 16.1 10.6 17 11.2 0 0 5.1 3.1 8.9 5.6 0.3 0.2 1.7 1.1 3 1.9 0.2 0.1 0.6 0.4 1.2 0.8 0.3 0.2 0.8 0.5 1.4 0.9 0.7 0.4 1 0.7 1.1 0.7 0.9 0.6 1 0.7 1.2 0.8 0.4 0.2 0.9 0.1 1.9-0.3 0.7-0.3 1.2-0.6 1.6-0.9 0.5-0.4 0.7-0.5 1.1-0.9 0.9-0.7 1.6-1 2-1.2 1-0.5 3.4-2 8.2-5.1 3.7-2.3 6.4-4.1 6.7-4.4 7.6-5 11.5-7.5 15.3-10.2 5.5-3.8 9.3-6.7 14.3-10.5 5.3-4 10.9-8.3 18.2-14.5 2.3-1.9 8.3-7 15.8-14 4.6-4.3 9.1-8.5 14.8-14.5 4.4-4.6 10.2-10.8 17-19.8 1.1-1.4 4.9-6.6 9.4-13.7 4-6.4 6.8-11.5 7.8-13.4 1.7-3.3 4-7.5 6.5-13.3 1.5-3.5 3.5-8.1 5.4-14.6 1.8-6.1 2.7-11 3.1-13.2 0.6-3.6 1.7-9.9 1.6-18.1-0.1-8.4-1.3-14.8-1.7-17.1-1.9-9.3-4.8-16.2-6.6-19.9-3.9-8.3-8.2-14-10.3-16.7-5-6.3-9.7-10.3-10.9-11.3-6.1-5.1-11.5-7.9-14.8-9.6-8.4-4.4-15.6-6.3-18.4-7.1-8.1-2.1-15.1-2.6-20-2.6-8.5-0.1-15 1.1-17.8 1.7-4 0.8-11.8 2.5-20.8 7.4 0 0-7.6 4.2-13.7 9.8-2.1 1.9-4.2 4.2-4.2 4.2-1.9 2-3.1 3.6-3.4 4-0.4 0.5-1.2 1.6-2.3 3-0.8 1.1-1.4 2-2.1 3.1-2.2 3.7-2.6 6.4-3.2 6.3z"/>
		<path class="st6" d="m-2508.8-1703c-0.2 0-0.2-0.3-0.8-1.7-0.2-0.4-0.4-0.8-0.9-1.6 0 0-0.7-1.3-1.5-2.6-2.7-4.4-5.6-8-5.6-8-5.5-6.8-11.8-11.4-11.8-11.4-6-4.4-11.4-6.6-14.9-8-8.9-3.6-16.2-4.6-20.2-5.1-10.2-1.3-18-0.6-19.9-0.4-1.8 0.2-8.8 1-17.5 3.9-9.8 3.3-16.6 7.4-18.5 8.6-8.3 5.2-13.8 10.7-16.5 13.7-2 2.2-7.1 7.9-11.7 16.7-2.6 4.9-5.7 11.8-7.8 20.6-2.5 10.6-2.2 19-2.1 24.4 0.5 13.3 3.3 23.1 4.9 28.5 3.8 12.8 8.7 21.9 12.2 28.2 4.1 7.4 7.8 12.8 11.1 17.6 7 10.2 13 17.2 14.3 18.8 6.2 7.3 11.1 12.1 18.5 19.1 12 11.6 21.8 19.7 24.2 21.6 1.9 1.6 14.7 12.1 30.2 22.6 7.1 4.8 16.1 10.6 17 11.2 0 0 5.1 3.1 8.9 5.6 0.3 0.2 1.7 1.1 3 1.9 0.2 0.1 0.6 0.4 1.2 0.8 0.3 0.2 0.8 0.5 1.4 0.9 0.7 0.4 1 0.7 1.1 0.7 0.9 0.6 1 0.7 1.2 0.8 0.4 0.2 0.9 0.1 1.9-0.3 0.7-0.3 1.2-0.6 1.6-0.9 0.5-0.4 0.7-0.5 1.1-0.9 0.9-0.7 1.6-1 2-1.2 1-0.5 3.4-2 8.2-5.1 3.7-2.3 6.4-4.1 6.7-4.4 7.6-5 11.5-7.5 15.3-10.2 5.5-3.8 9.3-6.7 14.3-10.5 5.3-4 10.9-8.3 18.2-14.5 2.3-1.9 8.3-7 15.8-14 4.6-4.3 9.1-8.5 14.8-14.5 4.4-4.6 10.2-10.8 17-19.8 1.1-1.4 4.9-6.6 9.4-13.7 4-6.4 6.8-11.5 7.8-13.4 1.7-3.3 4-7.5 6.5-13.3 1.5-3.5 3.5-8.1 5.4-14.6 1.8-6.1 2.7-11 3.1-13.2 0.6-3.6 1.7-9.9 1.6-18.1-0.1-8.4-1.3-14.8-1.7-17.1-1.9-9.3-4.8-16.2-6.6-19.9-3.9-8.3-8.2-14-10.3-16.7-5-6.3-9.7-10.3-10.9-11.3-6.1-5.1-11.5-7.9-14.8-9.6-8.4-4.4-15.6-6.3-18.4-7.1-8.1-2.1-15.1-2.6-20-2.6-8.5-0.1-15 1.1-17.8 1.7-4 0.8-11.8 2.5-20.8 7.4 0 0-7.6 4.2-13.7 9.8-2.1 1.9-4.2 4.2-4.2 4.2-1.9 2-3.1 3.6-3.4 4-0.4 0.5-1.2 1.6-2.3 3-0.8 1.1-1.4 2-2.1 3.1-2.2 3.7-2.6 6.4-3.2 6.3z"/>
		<path class="st7" d="m-2572.4-1728.7c-21 0.1-36.2 10.9-40.9 14.3-3.3 2.4-17.5 13.1-25.8 33.1-9.3 22.4-5.6 42.3-3.5 53.6 3.8 20.1 12.2 35.1 13.5 34.7s-6.8-17.6-5.8-42.4c0.3-7.4 1-20.8 8.1-35.5 0.9-1.9 16.5-33.1 50.5-43.6 19.6-6 35-2.1 35.5-5 0.4-2.5-14.7-9.3-31.6-9.2z"/>
		<path class="st7" d="m-2489.5-1500.6c-1.1-1.5 17.7-14.5 43.6-41.9 15.7-16.6 28.8-30.7 40.9-52.9 4.7-8.7 12.9-24 17.8-45.8 1.4-6.3 4.5-20.6 4-39.3-0.4-17.7-3.6-28.3-1.7-28.9 2.3-0.7 11.2 13.7 15 30.6 6.3 28-3.6 52.7-9.7 67.8-9 22.3-20.7 37-27.5 45.4-12.2 15.1-23.4 24.4-34.1 33.2-22.7 18.8-47 33.4-48.3 31.8z"/>
	</g>
</g>









	



	
		
			<path class="st8" d="m1145.9 1023.8c-0.3 0.3-0.4 0.6-0.6 0.8-4 5.1-21.8 26.2-48.5 25.3-29.8-1.1-59.4-29.5-57.1-63.4 0.6-9.6 3.8-18.3 8.6-25.9 10.2-16 28-26.7 46.2-28.9 23.4-2.8 51.5 7.8 62.1 32.3 12.1 27.5-6.3 54-10.7 59.8z"/>
			<path class="st9" d="m1145.9 1023.8c-0.3 0.3-0.4 0.6-0.6 0.8-4 5.1-21.8 26.2-48.5 25.3-29.8-1.1-59.4-29.5-57.1-63.4 0.6-9.6 3.8-18.3 8.6-25.9 2.1 7.2 4.4 12.8 6 16.5 6 13.9 11.5 26.8 25.2 36.4s28.7 11.3 35.1 12.1c9.6 1.1 17.1 0.3 21.1-0.1 3.7-0.5 7.1-1 10.2-1.7z"/>
			<path class="st10" d="m1156.7 963.9c12.7 29.1-8.5 57.1-11.4 60.7-4 5.1-21.8 26.2-48.5 25.3-29.8-1.1-59.4-29.5-57.1-63.4 2.1-29.9 28-51.6 54.8-54.8 23.4-2.9 51.6 7.7 62.2 32.2z"/>
		
		<path class="st11" d="m275.7 705.1c-8.1-8.4-21.2-24.9-47.5-57.8-12.5-15.6-17.9-22.8-21.5-34.7-1.6-5.3-8.4-30.5 4.5-54.6 7.3-13.6 17.4-20.3 34.1-31.1 20.7-13.4 37.8-19.5 62.1-28 52-18.3 72.2-16.7 79.6-15.9 9.1 1 16.7 1.8 24.3 5.3 42 19.3 50.1 104.3 37.9 166-8.8 44.7-37.9 126.1-81.1 128.1-17.7 0.8-42.6-25.2-92.4-77.3z"/>
		<path class="st12" d="m437 698.5c-14.2 40.3-37.9 82.4-68.9 83.9-17.7 0.8-42.6-25.2-92.4-77.3-8.1-8.5-21.2-24.9-47.5-57.8-12.4-15.6-17.9-22.8-21.5-34.7-1.6-5.3-8.4-30.5 4.5-54.6 4.7-8.8 10.6-14.7 18.7-20.7 7.4 13.3 16 24.8 25.3 37.3 24.8 33.3 49.9 53.3 65.2 65.2 14.3 11.2 39.5 30.9 74.2 45.5 15.9 6.8 29.9 10.8 42.4 13.2z"/>
		<path class="st10" d="m449.2 654.3c-2.5 12.7-6.6 28.3-12.3 44.2-14.2 40.3-37.9 82.4-68.9 83.9-17.7 0.8-42.6-25.2-92.4-77.3-8.1-8.5-21.2-24.9-47.5-57.8-12.4-15.6-17.9-22.8-21.5-34.7-1.6-5.3-8.4-30.5 4.5-54.6 4.7-8.8 10.6-14.7 18.7-20.7 4.4-3.3 9.5-6.6 15.4-10.4 20.7-13.4 37.8-19.5 62.1-28 52-18.3 72.2-16.7 79.6-15.9 9.1 1 16.7 1.8 24.3 5.3 42.1 19.3 50.2 104.4 38 166z"/>
		<path class="st13" d="m884.2 780.9c17.8 9.2 42.1-3.5 75.8-21.2 18.6-9.8 30-18.9 56.1-39.4 83.5-65.6 90.9-74.2 94-89.4 6-29.7-10.3-56.2-16.7-66.7-20.5-33.4-52.2-45.8-66.7-51.5-10.7-4.2-67-26.4-124.3 3-11 5.7-52.2 26.9-65.2 69.7-8.1 26.8 3.7 32.7 22.7 124.3 10.1 48.4 10.4 64 24.3 71.2z"/>
		<path class="st14" d="m806.9 720.2"/>
		<path class="st8" d="m325 684.8c0 13.5-4.4 25.9-11.8 36-11.1 15.1-28.9 24.9-49 24.9-33.6 0-60.8-27.3-60.8-60.9 0-20.1 9.8-38 24.8-49 10.1-7.4 22.5-11.8 36-11.8 33.6 0 60.8 27.3 60.8 60.8z"/>
		<path class="st9" d="m325 684.8c0 13.5-4.4 25.9-11.8 36-9.2-14.4-22.3-32-40.4-49.6-15.9-15.5-31.5-27-44.7-35.4 3.9-2.9 10.3-6.9 19.1-9.4 5.4-1.6 11.1-2.4 16.9-2.4 33.7 0 60.9 27.3 60.9 60.8z"/>
		<circle class="st10" cx="264" cy="684.9" r="60.8"/>
		<path class="st15" d="m528.5 829.9c-5.6 8.9-11.3 17.9-16.9 26.8-7.3 11.6-14.6 23.2-21.9 34.7-45-3.2-138.8-16.6-225.4-84.8-33.1-26.1-57.3-54-74.7-78.1 21.2-8.9 42.3-17.7 63.5-26.6 24.5-10.2 49-20.5 73.4-30.7l202 158.7z"/>
		<path class="st15" d="m824.3 843.5c5.6-8.9 11.3-17.9 16.9-26.8 7.3-11.6 14.6-23.2 21.9-34.7 45 3.2 138.8 16.6 225.4 84.8 33.1 26.1 57.3 54 74.7 78.1-21.2 8.9-42.3 17.7-63.5 26.6-24.5 10.2-49 20.5-73.4 30.7l-202-158.7z"/>
		<path class="st16" d="m933 1339.5c-81.6 16.5-180.4 28.8-292.5 27.1-96.1-1.4-181.7-12.8-254.1-27.7-51.5-10.5-84.8-60.6-74.4-112.2 36.2-178.8 72.3-357.6 108.5-536.3 7.6-37.9 37.2-66.7 73.9-74.3 6.3-1.3 12.8-2 19.4-2h274.1c44.2 0 82.6 30.4 92.7 73.4l117.4 500.6 8.5 36.4c12.3 52.2-20.9 104.4-73.5 115z"/>
		<path class="st17" d="m933 1339.5c-81.6 16.5-180.4 28.8-292.5 27.1-96.1-1.4-181.7-12.8-254.1-27.7-51.5-10.5-84.8-60.6-74.4-112.2 36.2-178.8 72.3-357.6 108.5-536.3 7.6-37.9 37.2-66.7 73.9-74.3-1.2 5.2-2.9 12.3-5.4 22.3-9.4 38-31.5 123.5-36.8 143.9 0 0-30.2 116.4-42.4 168.3-5 21.2-10.2 43.8-10.2 43.8-2.7 11.9-4.4 19.5-4.9 21.7-1.3 5.9-3.8 16.9-6.7 30.6 0 0-5.8 27.1-12.6 61-0.4 2.2-0.9 4.6-3.1 15.3-3 14.7-3.1 15.7-3.4 17.1 0 0-2.4 14.4 1.5 31.1 5.2 21.9 30.5 35.9 48.5 45.5 46.2 24.7 89.9 28.2 96.3 28.8 94.3 8.9 173-1.7 279.3-15.9 13.8-1.8 37.3-5.1 67.4-10.6 27.2-5 49.8-9.9 65.9-13.7 31.6-7.3 53.9-12.5 70.3-17.1l8.5 36.4c12.2 52.1-21 104.3-73.6 114.9z"/>
		<path class="st10" d="m933 1339.5c-81.6 16.5-180.4 28.8-292.5 27.1-96.1-1.4-181.7-12.8-254.1-27.7-51.5-10.5-84.8-60.6-74.4-112.2 36.2-178.8 72.3-357.6 108.5-536.3 7.6-37.9 37.2-66.7 73.9-74.3 6.3-1.3 12.8-2 19.4-2h274.1c44.2 0 82.6 30.4 92.7 73.4l117.4 500.6 8.5 36.4c12.3 52.2-20.9 104.4-73.5 115z"/>
		<path class="st16" d="m859 1250.2c-2.8 23.7-5.8 40-6.6 44-3.1 16.5-7.2 37.2-15.3 61.3-1.9 5.6-4 11.5-6.4 17.5-9.4 23.7-15.6 38.8-30.8 53.6-7.2 7-17.6 16.9-34.3 20.7-3.9 0.9-28.4 6-47-8.6-5.5-4.4-9-9.2-12.1-14.6-8.2-14.1-12.7-28.5-16.4-50.1-1.5-8.6-2.9-18.4-4.3-29.7-3.5-27.2-4.5-40.9-14.1-57.1-9.8-16.4-17.7-17.2-20.2-17.2-6.5 0-11.4 5.1-14.1 8.1-8.1 8.5-10.5 18.8-12.6 33.9-2.1 14.9-2.4 22.7-3.5 37.9-0.9 11.6-1.8 20.7-2.8 27.8-2.2 16.8-4.3 22.9-5.8 26.8-3.6 9.2-7.2 18.1-16.1 26.4-13.2 12.2-28.7 14.4-33.9 15-4.1 0.5-16.5 1.7-30.8-3.5-4.5-1.6-18.7-7.4-33.8-26.3-15.5-19.4-21.1-39-26.3-58.6-1.7-6.7-3.4-13.2-4.9-19.4-10.8-43.6-16.3-74.5-16.3-74.5-9.5-57-15.9-85.5-17.2-98 0 0-4.8-47.8-2.4-93.9 0.3-5.2 0.6-10.4 0.6-10.4s0.8-11.6 1.7-20c3-27.4 76.3-47 76.3-47 76.1-20.3 125.1-33.4 199.6-26.8 93.8 8.4 117.2 38.2 120.3 45.5 4.7 11.2 9.4 24.3 9.4 24.3 1.9 5.4 3.3 9.7 4 11.6 0 0 2.3 7.1 4.3 14.3 14.9 52.4 17.1 99.8 17.1 99.8 0.5 35.8-4.9 83-5.3 87.2z"/>
		<path class="st17" d="m574.2 1393.2c13.3-2.3 24.9-7 44-15.7-2.2 16.8-4.3 22.9-5.8 26.8-3.6 9.2-7.2 18.1-16.1 26.4-13.2 12.2-28.7 14.4-33.9 15-4.1 0.5-16.5 1.7-30.8-3.5-4.5-1.6-18.7-7.4-33.8-26.3-15.5-19.4-21.1-39-26.3-58.6-1.7-6.7-3.4-13.2-4.9-19.4 12 17.1 22.7 27.3 26.7 31 16.7 15.6 28.1 20.2 33.3 22 19.7 6.9 37.4 4.1 47.6 2.3z"/>
		<path class="st17" d="m837.1 1355.5c-1.9 5.6-4 11.5-6.4 17.5-9.4 23.7-15.6 38.8-30.8 53.6-7.2 7-17.6 16.9-34.3 20.7-3.9 0.9-28.4 6-47-8.6-5.5-4.4-9-9.2-12.1-14.6-8.2-14.1-12.7-28.5-16.4-50.1 4.9 3.5 11 7.3 19.2 10.9 6.2 2.8 17.3 7.7 31.1 9.1 21.1 2.1 37-5.4 59.1-15.9-0.2 0 14.1-6.8 37.6-22.6z"/>
		<path class="st18" d="m533.3 1087.5c0.1 54.3 1.5 111.2 4.5 170.3 3.4 65.9 8.7 128.8 15.1 188.4"/>
		<path class="st18" d="m786.9 1108.3c-0.3 48-2.7 100.3-8.3 156.1-6.9 68.1-17.5 130.3-29.7 185.6"/>
		<path class="st10" d="m859 1250.2c-2.8 23.7-5.8 40-6.6 44-3.1 16.5-7.2 37.2-15.3 61.3-1.9 5.6-4 11.5-6.4 17.5-9.4 23.7-15.6 38.8-30.8 53.6-7.2 7-17.6 16.9-34.3 20.7-3.9 0.9-28.4 6-47-8.6-5.5-4.4-9-9.2-12.1-14.6-8.2-14.1-12.7-28.5-16.4-50.1-1.5-8.6-2.9-18.4-4.3-29.7-3.5-27.2-4.5-40.9-14.1-57.1-9.8-16.4-17.7-17.2-20.2-17.2-6.5 0-11.4 5.1-14.1 8.1-8.1 8.5-10.5 18.8-12.6 33.9-2.1 14.9-2.4 22.7-3.5 37.9-0.9 11.6-1.8 20.7-2.8 27.8-2.2 16.8-4.3 22.9-5.8 26.8-3.6 9.2-7.2 18.1-16.1 26.4-13.2 12.2-28.7 14.4-33.9 15-4.1 0.5-16.5 1.7-30.8-3.5-4.5-1.6-18.7-7.4-33.8-26.3-15.5-19.4-21.1-39-26.3-58.6-1.7-6.7-3.4-13.2-4.9-19.4-10.8-43.6-16.3-74.5-16.3-74.5-9.5-57-15.9-85.5-17.2-98 0 0-4.8-47.8-2.4-93.9 0.3-5.2 0.6-10.4 0.6-10.4s0.8-11.6 1.7-20c3-27.4 76.3-47 76.3-47 76.1-20.3 125.1-33.4 199.6-26.8 93.8 8.4 117.2 38.2 120.3 45.5 4.7 11.2 9.4 24.3 9.4 24.3 1.9 5.4 3.3 9.7 4 11.6 0 0 2.3 7.1 4.3 14.3 14.9 52.4 17.1 99.8 17.1 99.8 0.5 35.8-4.9 83-5.3 87.2z"/>
		<path class="st16" d="m889.2 1183.5c-56.1 17.3-139.1 35.9-240.5 34.4-91.7-1.4-167.2-18.8-220.3-35.4-0.9-20.9-1.2-44.1-0.4-69.3 1.4-44 6.1-93.8 16.7-147.9 17.8-91.2 46.6-165.3 72.4-219.6 92.7-4.3 185.4-8.5 278-12.8 22.8 63.3 45.1 137.4 62.6 221.3 15.3 73.3 24.3 141.4 29.3 202.1 0.9 9.3 1.6 18.3 2.2 27.2z"/>
		<path class="st17" d="m889.2 1183.5c-56.1 17.3-139.1 35.9-240.5 34.4-91.7-1.4-167.2-18.8-220.3-35.4-0.9-20.9-1.2-44.1-0.4-69.3 8.4 8.7 17.1 16.9 23.6 21.8 15.8 12.1 48.9 26.1 150.5 38.4 35.6 4.3 93.7 11 170.5 3.5 0 0 55.8-5.5 114.5-20.6 0.8 9.3 1.5 18.3 2.1 27.2z"/>
		<path class="st10" d="m610.3 810.7c19.7 88.2 35.5 193.8 38.4 313.2 0.8 34.9 0.7 64.2-0.6 96.3"/>
		<path class="st10" d="m889.2 1183.5c-56.1 17.3-139.1 35.9-240.5 34.4-91.7-1.4-167.2-18.8-220.3-35.4-0.9-20.9-1.2-44.1-0.4-69.3 1.4-44 6.1-93.8 16.7-147.9 17.8-91.2 46.6-165.3 72.4-219.6 92.7-4.3 185.4-8.5 278-12.8 22.8 63.3 45.1 137.4 62.6 221.3 15.3 73.3 24.3 141.4 29.3 202.1 0.9 9.3 1.6 18.3 2.2 27.2z"/>
		<circle class="st19" cx="648.3" cy="1131.8" r="18.6"/>
		<circle class="st19" cx="647" cy="1057.9" r="18.6"/>
		<circle class="st19" cx="637.7" cy="983.9" r="18.6"/>
		
			
				<rect class="st10" transform="matrix(.6759 .737 -.737 .6759 815.26 -207.56)" x="564.8" y="737.3" width="157.5" height="171.7"/>
		
		<path class="st13" d="m630.6 920.6c-28.4 7.8-56.8 15.7-85.1 23.5-1-16.3-1.4-34.1-0.8-53.3 0.6-18.3 2.1-35.3 4-50.8 23.7 6.6 58.2 23.9 81.8 30.6 3.7 20.2-3.5 29.8 0.1 50z"/>
		<path class="st13" d="m651.4 920.6c28.4 7.8 56.8 15.7 85.1 23.5 1-16.3 1.4-34.1 0.8-53.3-0.6-18.3-2.1-35.3-4-50.8-23.7 6.6-58.2 23.9-81.8 30.6-3.8 20.2 3.5 29.8-0.1 50z"/>
		<circle class="st13" cx="644.7" cy="895.5" r="30.3"/>
		
			
				<path class="st20" d="m455.9 511.6c-16.3 5-32.9 7.8-49.1 8-55 0.8-109-27.7-125.3-36.4-24.1-12.8-53.2-28.6-78.8-61.7-16.3-21-40.6-52.6-40.4-94 0.1-21.2 6.6-41.1-3-47.5-10.1-6.6-27.7 8.2-32.3 3-7.1-7.9 29.4-47.1 22.2-55.6-6.1-7.2-37.4 16.2-45.5 8.1-6.9-6.9 6.9-32.9 20.2-49.5 1-1.2 2.2-2.7 3.6-4.4 8.4-10 24.3-26.5 49-35 21.9-7.5 34.8-3.2 47-16.2 4.5-4.7 6.8-9.7 16.3-19.6 0.3-0.3 7.5-7.7 16.5-14.8 25-19.9 55.3-31.1 57.5-32 0 0 30.1-10.9 62.8-12.5 90.4-4.3 167.6 65.1 175.8 72.8 24.2 22.4 74.9 69.1 82.9 139.4 12 107.3-80.4 217.8-179.4 247.9z"/>
				<path class="st21" d="m455.9 511.6c-16.3 5-32.9 7.8-49.1 8-55 0.8-109-27.7-125.3-36.4-24.1-12.8-53.2-28.6-78.8-61.7-16.3-21-40.6-52.6-40.4-94 0.1-21.2 6.6-41.1-3-47.5-10.1-6.6-27.7 8.2-32.3 3-7.1-7.9 29.4-47.1 22.2-55.6-6.1-7.2-37.4 16.2-45.5 8.1-6.9-6.9 6.9-32.9 20.2-49.5 1-1.2 2.2-2.7 3.6-4.4 3.7 6.2 7.7 10.5 9.6 12.5 12.5 13.7 21.3 11.9 24.3 22.2 2.2 7.8-2.1 11.4 1 22.2 2.2 7.8 6.3 13 8.1 15.2 7.7 9.5 14.2 9.7 20.2 15.1 9.5 8.6 6.5 20.2 9.1 41.4 3.4 28.7 13.8 49.6 18.2 58.6 10.5 21.2 22.8 35.2 29.3 42.4 7.1 8 18.7 20.6 37.4 32.3 6 3.8 11.4 6.6 21.2 11.1 29.8 13.8 54.7 22.5 62.6 25.3 52.1 18 51.5 15.3 71.7 24.3 5.4 2.8 10.7 5.1 15.7 7.4z"/>
				<path class="st10" d="m455.9 511.6c-16.3 5-32.9 7.8-49.1 8-55 0.8-109-27.7-125.3-36.4-24.1-12.8-53.2-28.6-78.8-61.7-16.3-21-40.6-52.6-40.4-94 0.1-21.2 6.6-41.1-3-47.5-10.1-6.6-27.7 8.2-32.3 3-7.1-7.9 29.4-47.1 22.2-55.6-6.1-7.2-37.4 16.2-45.5 8.1-6.9-6.9 6.9-32.9 20.2-49.5 1-1.2 2.2-2.7 3.6-4.4 8.4-10 24.3-26.5 49-35 21.9-7.5 34.8-3.2 47-16.2 4.5-4.7 6.8-9.7 16.3-19.6 0.3-0.3 7.5-7.7 16.5-14.8 25-19.9 55.3-31.1 57.5-32 0 0 30.1-10.9 62.8-12.5 90.4-4.3 167.6 65.1 175.8 72.8 24.2 22.4 74.9 69.1 82.9 139.4 12 107.3-80.4 217.8-179.4 247.9z"/>
				<path class="st22" d="m578 305.6c-7.6 66.2-73.5 127.1-139.9 143.4-40.9 10.1-76.5 1.8-87.9-1-14.3-3.5-52.7-13.4-86.9-47.5-9.9-9.9-32.7-33.1-43.4-71.7-11-39.3-3.1-71.5 0-83.9 12.1-47.4 41.3-75.3 51.5-84.9 2.2-2 4.3-3.9 6.5-5.8 21-17.7 40.2-25.9 45.2-27.9 33.8-13.8 63.1-12.4 76.6-11.6 11.6 0.7 36 2.4 63.4 15.1 37.7 17.5 58.2 45.1 73 65.5 20.7 28.5 40.2 55.4 42.4 90.9 0.4 6.5 0.2 13-0.5 19.4z"/>
				<path class="st23" d="m578 305.6c-5.3-12.5-12.3-26.6-22-40.6-7.8-11.3-16.7-21.9-16.7-21.9-4.9-5.8-15.3-17.9-29.5-30.5-34.2-30.4-69.1-46.1-76.8-49.5-7.8-3.4-25.6-10.8-49.5-16.2-11.9-2.7-26.4-5.6-45.5-5.1-2.9 0.1-15 0.5-31.3 4-10 2.2-19.7 5.1-28.9 8.4 21-17.7 40.2-25.9 45.2-27.9 33.8-13.8 63.1-12.4 76.6-11.6 11.6 0.7 36 2.4 63.4 15.1 37.7 17.5 58.2 45.1 73 65.5 20.7 28.5 40.2 55.4 42.4 90.9 0.5 6.5 0.3 13-0.4 19.4z"/>
				<path class="st10" d="m578 307.2c-7.6 66.2-73.5 127.1-139.9 143.4-40.9 10.1-76.5 1.8-87.9-1-14.3-3.5-52.7-13.4-86.9-47.5-9.9-9.9-32.7-33.1-43.4-71.7-11-39.3-3.1-71.5 0-83.9 12.1-47.4 41.3-75.3 51.5-84.9 2.2-2 4.3-3.9 6.5-5.8 21-17.7 40.2-25.9 45.2-27.9 33.8-13.8 63.1-12.4 76.6-11.6 11.6 0.7 36 2.4 63.4 15.1 37.7 17.5 58.2 45.1 73 65.5 20.7 28.5 40.2 55.4 42.4 90.9 0.4 6.6 0.2 13-0.5 19.4z"/>
			
			
				<path class="st20" d="m844.1 510c16.3 5 32.9 7.8 49.1 8 55 0.8 109-27.7 125.3-36.4 24.1-12.8 53.2-28.6 78.8-61.7 16.3-21 40.6-52.6 40.4-94-0.1-21.2-6.6-41.1 3-47.5 10.1-6.6 27.7 8.2 32.3 3 7.1-7.9-29.4-47.1-22.2-55.6 6.1-7.2 37.4 16.2 45.5 8.1 6.9-6.9-6.9-32.9-20.2-49.5-1-1.2-2.2-2.7-3.6-4.4-8.4-10-24.3-26.5-49-35-21.9-7.5-34.8-3.2-47-16.2-4.5-4.7-6.8-9.7-16.3-19.6-0.3-0.3-7.5-7.7-16.5-14.8-25-19.9-55.3-31.1-57.5-32 0 0-30.1-10.9-62.8-12.5-90.3-4-167.4 65.4-175.7 73.1-24.2 22.4-74.9 69.1-82.9 139.4-12.1 106.9 80.3 217.4 179.3 247.6z"/>
				<path class="st21" d="m844.1 510c16.3 5 32.9 7.8 49.1 8 55 0.8 109-27.7 125.3-36.4 24.1-12.8 53.2-28.6 78.8-61.7 16.3-21 40.6-52.6 40.4-94-0.1-21.2-6.6-41.1 3-47.5 10.1-6.6 27.7 8.2 32.3 3 7.1-7.9-29.4-47.1-22.2-55.6 6.1-7.2 37.4 16.2 45.5 8.1 6.9-6.9-6.9-32.9-20.2-49.5-1-1.2-2.2-2.7-3.6-4.4-3.7 6.2-7.7 10.5-9.6 12.5-12.5 13.7-21.3 11.9-24.3 22.2-2.2 7.8 2.1 11.4-1 22.2-2.2 7.8-6.3 13-8.1 15.2-7.7 9.5-14.2 9.7-20.2 15.1-9.5 8.6-6.5 20.2-9.1 41.4-3.4 28.7-13.8 49.6-18.2 58.6-10.5 21.2-22.8 35.2-29.3 42.4-7.1 8-18.7 20.6-37.4 32.3-6 3.8-11.4 6.6-21.2 11.1-29.8 13.8-54.7 22.5-62.6 25.3-52.1 18-51.5 15.3-71.7 24.3-5.4 2.7-10.7 5.1-15.7 7.4z"/>
				<path class="st10" d="m844.1 510c16.3 5 32.9 7.8 49.1 8 55 0.8 109-27.7 125.3-36.4 24.1-12.8 53.2-28.6 78.8-61.7 16.3-21 40.6-52.6 40.4-94-0.1-21.2-6.6-41.1 3-47.5 10.1-6.6 27.7 8.2 32.3 3 7.1-7.9-29.4-47.1-22.2-55.6 6.1-7.2 37.4 16.2 45.5 8.1 6.9-6.9-6.9-32.9-20.2-49.5-1-1.2-2.2-2.7-3.6-4.4-8.4-10-24.3-26.5-49-35-21.9-7.5-34.8-3.2-47-16.2-4.5-4.7-6.8-9.7-16.3-19.6-0.3-0.3-7.5-7.7-16.5-14.8-25-19.9-55.3-31.1-57.5-32 0 0-30.1-10.9-62.8-12.5-90.3-4-167.4 65.4-175.7 73.1-24.2 22.4-74.9 69.1-82.9 139.4-12.1 106.9 80.3 217.4 179.3 247.6z"/>
				<path class="st22" d="m722 303.9c7.6 66.2 73.5 127.1 139.9 143.4 40.9 10.1 76.5 1.8 87.9-1 14.3-3.5 52.7-13.4 86.9-47.5 9.9-9.9 32.7-33.1 43.4-71.7 11-39.3 3.1-71.5 0-83.9-12.1-47.4-41.3-75.3-51.5-84.9-2.2-2-4.3-3.9-6.5-5.8-21-17.7-40.2-25.9-45.2-27.9-33.8-13.8-63.1-12.4-76.6-11.6-11.6 0.7-36 2.4-63.4 15.1-37.7 17.5-58.2 45.1-73 65.5-20.7 28.5-40.2 55.4-42.4 90.9-0.4 6.6-0.2 13 0.5 19.4z"/>
				<path class="st23" d="m722 303.9c5.3-12.5 12.3-26.6 22-40.6 7.8-11.3 16.7-21.9 16.7-21.9 4.9-5.8 15.3-17.9 29.5-30.5 34.2-30.4 69.1-46.1 76.8-49.5 7.8-3.4 25.6-10.8 49.5-16.2 11.9-2.7 26.4-5.6 45.5-5.1 2.9 0.1 15 0.5 31.3 4 10 2.2 19.7 5.1 28.9 8.4-21-17.7-40.2-25.9-45.2-27.9-33.8-13.8-63.1-12.4-76.6-11.6-11.6 0.7-36 2.4-63.4 15.1-37.7 17.5-58.2 45.1-73 65.5-20.7 28.5-40.2 55.4-42.4 90.9-0.5 6.6-0.3 13 0.4 19.4z"/>
				<path class="st10" d="m722 305.6c7.6 66.2 73.5 127.1 139.9 143.4 40.9 10.1 76.5 1.8 87.9-1 14.3-3.5 52.7-13.4 86.9-47.5 9.9-9.9 32.7-33.1 43.4-71.7 11-39.3 3.1-71.5 0-83.9-12.1-47.4-41.3-75.3-51.5-84.9-2.2-2-4.3-3.9-6.5-5.8-21-17.7-40.2-25.9-45.2-27.9-33.8-13.8-63.1-12.4-76.6-11.6-11.6 0.7-36 2.4-63.4 15.1-37.7 17.5-58.2 45.1-73 65.5-20.7 28.5-40.2 55.4-42.4 90.9-0.4 6.5-0.2 13 0.5 19.4z"/>
			
		
		<path class="st8" d="m961.5 683.9c-26.2 51.7-68.9 79.5-106.9 102.1-3.1 1.9-6.2 3.7-9.3 5.5-17.6 10.3-46.5 27.1-88.4 39.4-76.2 22.4-139.4 13.6-169.7 9.1-23.5-3.5-60.8-9.4-103.8-28.2-11.1-4.8-22.5-10.5-34.2-17.3-34.7-20-91.4-52.7-116.7-118.2-4.8-12.6-15.1-40.1-12.7-73.5 0.4-5.1 1-10.5 2.1-15.9 0.4-1.9 1.3-6.1 3.1-11.9 2.8-9.1 5.8-15.8 8.5-21.7 11.6-25.4 11-24 11.9-26.1 5.6-13.4 7.5-24 9.8-37.7 2.1-12.5 2.9-25.4 4.6-51.1 0.7-10.4 0.9-15.7 1-19.2 0.4-13.2 0-19.7 0-30.8 0-13.7 0-24.5 1-34.4 2-17.9 7.3-30.8 13.1-44.5 3.4-8 15.8-36 41.7-69 12.8-16.2 29.3-36.9 56.8-56.8 20-14.5 37.8-22.8 58.8-32.6 8.7-4 15.9-6.9 24.1-9.4 11.9-3.6 22-5.2 25.9-5.7 23.5-3.3 31.5 0.5 35.4-5.1 5.5-7.9-6.7-21.2-1.5-26.8 5.7-6.1 24.6 5.3 27.8 0.5 1.5-2.3-2.3-5.8-6.5-15.7-2.1-4.8-8.9-20.3-4.6-24.3 3.8-3.4 14.8 3 21.7 7.1 7.9 4.6 18.5 10.8 28.8 23.7 13 16.4 13.2 28.2 24.8 33.3 1.3 0.6 6.4 2.6 12.4 4.8 5.5 2 6.5 2.1 12.7 4.3 6 2.1 10.6 4 13.1 5 5.8 2.3 10.2 4.3 12.5 5.3 18.3 8 32.9 15.8 32.9 15.8 33 16.5 53.2 33.9 53.2 33.9 21.7 17.4 35.4 34.7 42.3 43.4 11.2 14.3 34.4 44.4 47.5 89.3 10 34.2 10.7 65.3 10.6 78-0.1 13.4-1.1 24-0.5 48 0.8 31.8 3.5 42.5 5.1 48 3.1 10.9 4.7 11.2 11.6 32.3 6.6 20.4 4.9 17.5 8.8 29.5 5.6 17.1 8.6 23.5 10.3 33.5 0.2 1.2 0.4 2.4 0.6 3.7 4.2 33.3-9.5 60.3-19.7 80.4z"/>
		<path class="st24" d="m854.6 786c-3.1 1.9-6.2 3.7-9.3 5.5-17.6 10.3-46.5 27.1-88.4 39.4-76.2 22.4-139.4 13.6-169.7 9.1-23.5-3.5-60.8-9.4-103.8-28.2-7.1-38.8-12.8-71.1-11.4-115.8 2.2-73.9 21.9-128.3 27.3-142.5 21.6-57.2 48.9-91.1 59.1-103.1 20.3-23.8 36.7-42.5 65.2-50 35.7-9.3 66.4 5.2 74.3 9.1 7.6 3.7 29.9 15.8 59.1 62.1 18.9 30.1 30 57.6 44 100 13.1 40 26.9 82.3 40.9 150 5 24.8 9.4 45.9 12.7 64.4z"/>
		<path class="st25" d="m961.5 683.9c-26.2 51.7-68.9 79.5-106.9 102.1-3.1 1.9-6.2 3.7-9.3 5.5-17.6 10.3-46.5 27.1-88.4 39.4-76.2 22.4-139.4 13.6-169.7 9.1-23.5-3.5-60.8-9.4-103.8-28.2-11.1-4.8-22.5-10.5-34.2-17.3-34.7-20-91.4-52.7-116.7-118.2-4.8-12.6-15.1-40.1-12.7-73.5 4.2 7.9 9 16.6 14.2 26.1 13.1 23.8 40.7 73.8 95.5 105.1 43.5 24.8 101.5 36.4 116.7 39.4 10.3 2 59.9 11.9 127.3 10.6 36.6-0.7 60.6-1.3 93-8.6 23-5.2 73.7-17.2 125.3-56.6 14.1-10.7 39.5-30.4 61.6-63.7 13-19.5 21.5-38.4 27.2-55.3 0.2 1.2 0.4 2.4 0.6 3.7 4.2 33.3-9.5 60.3-19.7 80.4z"/>
		<path class="st10" d="m962.1 683.9c-26.2 51.7-68.9 79.5-106.9 102.1-3.1 1.9-6.2 3.7-9.3 5.5-17.6 10.3-46.5 27.1-88.4 39.4-76.2 22.4-139.4 13.6-169.7 9.1-23.5-3.5-60.8-9.4-103.8-28.2-11.1-4.8-22.5-10.5-34.2-17.3-34.7-20-91.4-52.7-116.7-118.2-4.8-12.6-15.1-40.1-12.7-73.5 0.4-5.1 1-10.5 2.1-15.9 0.4-1.9 1.3-6.1 3.1-11.9 2.8-9.1 5.8-15.8 8.5-21.7 11.6-25.4 11-24 11.9-26.1 5.6-13.4 7.5-24 9.8-37.7 2.1-12.5 2.9-25.4 4.6-51.1 0.7-10.4 0.9-15.7 1-19.2 0.4-13.2 0-19.7 0-30.8 0-13.7 0-24.5 1-34.4 2-17.9 7.3-30.8 13.1-44.5 3.4-8 15.8-36 41.7-69 12.8-16.2 29.3-36.9 56.8-56.8 20-14.5 37.8-22.8 58.8-32.6 8.7-4 15.9-6.9 24.1-9.4 11.9-3.6 22-5.2 25.9-5.7 23.5-3.3 31.5 0.5 35.4-5.1 5.5-7.9-6.7-21.2-1.5-26.8 5.7-6.1 24.6 5.3 27.8 0.5 1.5-2.3-2.3-5.8-6.5-15.7-2.1-4.8-8.9-20.3-4.6-24.3 3.8-3.4 14.8 3 21.7 7.1 7.9 4.6 18.5 10.8 28.8 23.7 13 16.4 13.2 28.2 24.8 33.3 1.3 0.6 6.4 2.6 12.4 4.8 5.5 2 6.5 2.1 12.7 4.3 6 2.1 10.6 4 13.1 5 5.8 2.3 10.2 4.3 12.5 5.3 18.3 8 32.9 15.8 32.9 15.8 33 16.5 53.2 33.9 53.2 33.9 21.7 17.4 35.4 34.7 42.3 43.4 11.2 14.3 34.4 44.4 47.5 89.3 10 34.2 10.7 65.3 10.6 78-0.1 13.4-1.1 24-0.5 48 0.8 31.8 3.5 42.5 5.1 48 3.1 10.9 4.7 11.2 11.6 32.3 6.6 20.4 4.9 17.5 8.8 29.5 5.6 17.1 8.6 23.5 10.3 33.5 0.2 1.2 0.4 2.4 0.6 3.7 4.2 33.3-9.5 60.3-19.7 80.4z"/>
		
			<ellipse class="st26" cx="457" cy="531.9" rx="49.8" ry="21.3"/>
			<ellipse class="st26" cx="842" cy="531.9" rx="49.8" ry="21.3"/>
		
		
			
				<path class="st27" d="m572 465.6c-2 4.7-6.4 7-6.8 7.2-13.2 6.7-25 9.8-47.2 8.9-22.9-0.9-37.3-3.8-48.2-11.5-3.1-2.2-4.2-5.6-4.8-7.4-6-19.1 18.4-57.8 50-59.4 35.8-1.7 64.5 44.6 57 62.2z"/>
				<ellipse class="st28" cx="510.5" cy="422.8" rx="16.2" ry="9"/>
			
		
		
			
				<path class="st27" d="m845.4 465.6c-2 4.7-6.4 7-6.8 7.2-13.2 6.7-25 9.8-47.2 8.9-22.9-0.9-37.3-3.8-48.2-11.5-3.1-2.2-4.2-5.6-4.8-7.4-6-19.1 18.4-57.8 50-59.4 35.9-1.7 64.6 44.6 57 62.2z"/>
				<ellipse class="st28" cx="783.9" cy="422.8" rx="16.2" ry="9"/>
			
		
		<path class="st29" d="m703.5 664.5v48.8c0 29.2-23.9 53.1-53.1 53.1s-53.1-23.9-53.1-53.1v-49.1c4.3 0.4 10.1 0.8 17.4-0.8 13-2.9 21.4-10.2 23.3-11.9 0.2-0.1 0.6-0.6 1.3-1.3 2.9-2.9 9.4-10.5 13-21 3.5 10.5 10.1 18.1 12.9 21l1.3 1.3c2 1.8 10.3 9 23.3 11.9 5.3 1.2 9.9 1.3 13.7 1.1z"/>
		<path class="st29" d="m723 534.6c-0.3 11.4-0.5 21.4-4.5 33.7-2.7 8.4-6.9 21.2-17.9 31.1-11.4 10.2-24.7 12.4-38 13-2.8 0.1-5.5 0.2-8.2 0.2h-1.7-1.6-1.3-0.3c-2.6 0-5.3-0.1-7.9-0.2-13.9-0.4-28.1-2.3-40-13.1-11-9.9-15.2-22.7-17.9-31.1-4-12.3-4.2-22.3-4.5-33.7-0.3-9.3-0.4-21.1 3.1-36 3.5-15.1 9.4-26.8 13.9-34.5 3.9-6.4 12.4-19.3 26.8-30.7 13.7-10.8 22.3-12.1 25-12.5 0.8-0.1 1.9-0.2 3-0.3 1.2 0.1 2.2 0.1 3 0.3 2.7 0.4 11.4 1.7 25 12.5 14.4 11.4 22.9 24.3 26.8 30.7 4.6 7.7 10.4 19.3 14 34.5 3.7 15 3.5 26.8 3.2 36.1z"/>
		<path class="st29" d="m768.2 601.3c0 0.6 0 2.1-0.2 3.9-0.3 3.5-0.8 6.1-1.2 7.8-0.3 1.3-0.5 2.2-0.6 2.5 0 0-0.7 2.7-1.5 5.1-1.5 4.4-4.3 9.2-4.9 10.1-3.6 6-7.3 10.3-9.2 12.3-5.3 5.6-10.1 9-11.5 9.9-12.4 8.5-24.9 10.6-31.1 11.2-1.4 0.1-3 0.3-4.7 0.4-3.7 0.2-8.3 0.1-13.7-1.1-13-2.9-21.4-10.2-23.3-11.9l-1.3-1.3c-2.8-2.9-9.4-10.5-12.9-21-3.5 10.5-10.1 18.1-13 21l-1.3 1.3c-1.9 1.8-10.3 9-23.3 11.9-7.3 1.6-13.2 1.2-17.4 0.8-0.3 0-0.6-0.1-1-0.1-6.1-0.6-18.7-2.7-31.1-11.2-1.3-0.9-6.2-4.3-11.5-9.9-1.9-2.1-5.6-6.3-9.2-12.3-0.5-0.9-3.4-5.7-4.9-10.1-0.8-2.4-1.5-5.1-1.5-5.1-0.1-0.3-0.3-1.2-0.6-2.5-0.3-1.7-0.9-4.3-1.2-7.8-0.2-1.9-0.2-3.3-0.2-3.9s0-2.3 0.1-4.5c0.1-2.4 0.2-3.7 0.4-4.4 0.8-2.8 4.1-6.5 8.5-6.2 3.7 0.2 6.9 3 7.8 6.8-0.1 1.3-0.1 3.3 0 5.7 0.6 12.1 5.1 20.8 6.4 23.3 4.5 8.3 10.1 13.2 11.2 14.2 6.3 5.5 12.5 7.9 15.3 8.9 3.2 1.1 11.1 3.7 21.2 2.2 9.8-1.5 16.3-6.1 20.5-9 3.9-2.8 6-5.1 7.2-6.6 0.9-1.2 3-3.9 4.5-8 1.9-4.7 2.1-8.7 2.3-11v-0.2c2.6 0.1 5.3 0.1 7.9 0.2h0.3 1.3 1.6 1.7c2.7 0 5.5-0.1 8.2-0.2v0.2c0.1 2.3 0.4 6.3 2.3 11 1.6 4 3.6 6.8 4.5 8 1.2 1.6 3.3 3.9 7.2 6.6 4.1 3 10.6 7.5 20.5 9 10.1 1.5 18-1.1 21.2-2.2 2.9-1 9-3.5 15.3-8.9 1.1-1 6.7-5.9 11.2-14.2 1.4-2.5 5.8-11.2 6.5-23.3 0.1-2.4 0.1-4.3 0-5.7 0.9-3.9 4.1-6.6 7.8-6.8 4.5-0.3 7.7 3.5 8.5 6.2 0.2 0.8 0.3 2 0.4 4.4 0.5 2.2 0.5 3.8 0.5 4.5z"/>
		<path class="st30" d="m695.6 726.2c-0.5 17.9-23.4 34.6-45.2 34.4-21.4-0.2-44.1-16.5-44.3-34.4-0.2-12.1 10-21.4 14-25.1 2.8-2.6 13.6-12.2 30.3-12.5 19.7-0.3 32.1 12.6 34.1 14.8 3.7 4 11.3 12.2 11.1 22.8z"/>
		
			<ellipse class="st31" transform="matrix(.9035 -.4286 .4286 .9035 -238.11 342.12)" cx="640.6" cy="699.8" rx="8.3" ry="4.7"/>
		<path class="st32" d="m572.9 649.8c-0.6 0.6-3 3-0.8 13.8 0.6 2.9 3.6 21.5 9.9 21.4 4.2-0.1 8.2-7.7 11-16.3 2.2-6.7 3.6-11.4 1.1-15-2.2-3.2-6.2-4-10-4.7s-8.5-1.6-11.2 0.8z"/>
		<path class="st32" d="m727.5 649.8c0.6 0.6 3 3 0.8 13.8-0.6 2.9-3.6 21.5-9.9 21.4-4.2-0.1-8.2-7.7-11-16.3-2.2-6.7-3.6-11.4-1.1-15 2.2-3.2 6.2-4 10-4.7 3.9-0.7 8.5-1.6 11.2 0.8z"/>
		
			<ellipse class="st33" transform="matrix(.9476 -.3196 .3196 .9476 -26.569 188.16)" cx="560" cy="175" rx="38.2" ry="15.7"/>
		<circle class="st33" cx="511.8" cy="197" r="6.3"/>
</svg>
