<svg xmlns="http://www.w3.org/2000/svg" viewBox="0 0 1502 1502" xmlns:v="https://vecta.io/nano"><path d="M744.4 1501l-9.2-2.1c-27.4-7.3-46.4-31.1-46.5-59.4v-126.7c.2-32.6 26.1-60 57.4-61.6 34.6-1.8 62.9 21.4 67 55 .3 2.5.3 5.1.3 7.7V1438c-.1 29.5-18.8 53.6-46.9 61-2.9.8-5.9 1.3-8.9 2h-13.2zM757.6 1c6.8 2.1 14.1 3.2 20.4 6.4 22 10.9 34.7 29.1 35.1 53.7.7 43.3.6 86.6.1 129.9-.4 31.2-26.4 58-56.9 59.8-33.5 2-62-20.2-66.9-52.1-.6-4.1-.8-8.3-.8-12.4l-.2-120.1c-.5-34.6 24.6-61.1 54.7-64.7.5-.1.9-.4 1.3-.5h13.2zM1 744.4l2.1-9.2c7-26.9 30.6-46.2 58.3-46.5h129.2c31.6.4 58.3 26.3 60.1 56.9 1.9 33.7-20.1 61.9-52.5 66.9-3.8.6-7.8.8-11.7.8-40 .1-80.1-.5-120.1.2-35.5.6-61.7-25.3-65-54.7-.1-.5-.4-.9-.5-1.3l.1-13.1zm1500 13.2l-1.7 7.8c-6.5 27.4-30.5 47.6-58.8 47.9h-129.2c-31.6-.4-58.4-26.3-60.1-56.9-1.9-33.7 20.1-61.9 52.5-66.9 3.8-.6 7.8-.8 11.7-.8l120.4-.2c35.2-.5 61.3 25.2 64.6 54.7.1.5.4.9.5 1.3l.1 13.1zm-1125-6.9c.2-207.1 168.2-374.9 375.2-374.7 207.2.2 375.3 168.4 374.8 375.4-.4 207.2-168.5 374.9-375.3 374.6-207.2-.3-374.9-168.3-374.7-375.3zm125.1.1c-.2 138.1 111.5 250 249.8 250.2 138 .2 249.7-111.3 250.1-249.5.4-138-111.2-250-249.6-250.3-138.1-.5-250.1 111.3-250.3 249.6zM416 353.5c0 25.2-15 48.3-38.6 57.6-24.8 9.8-47.9 5.8-67.1-12.7-30.5-29.5-60.5-59.6-90.1-90-17.9-18.4-22.8-40.7-14-64.9 8.7-24.1 26.8-37.7 52-40.8 18.8-2.3 35.8 3.3 49.3 16.7l91.2 91.1c11.7 11.8 17 26.5 17.3 43zm0 795.1c-.3 16.5-5.7 31.2-17.4 43l-90.9 90.8c-23.9 23.5-63.1 22.9-86.9-.7-24-23.9-25.3-62.7-1.8-86.8l92.2-92.1c19.1-18.3 42.5-21.6 66.9-11.6 23.3 9.6 38 32.5 37.9 57.4zm883.7-883.8c-.2 16.5-5.6 31.1-17.3 42.9l-91.1 91.1c-18.3 18.1-46.6 22.1-69.9 10.9s-37.3-35.6-35.1-61.2c1.3-15.3 7.3-28.5 18.1-39.3l88.6-88.5c18.4-18.1 40.7-23.3 65.1-14.8 24.3 8.6 37.7 26.7 41.3 52.1.3 2.3.2 4.5.3 6.8zm-153.4 821.1c18.7.4 33.4 5.7 45.2 17.3l90.5 90.7c17.8 18.3 22.4 40.7 13.8 64.6-8.7 24-26.8 37.7-52.1 40.8-18.8 2.2-35.7-3.4-49.3-16.7l-91-91.2c-18.6-19.3-22.6-42.8-12.1-67.4 10.5-24.8 30.5-36.7 55-38.1z"/></svg>