<?xml version="1.0" encoding="utf-8"?>
<!-- Generator: Adobe Illustrator 25.0.1, SVG Export Plug-In . SVG Version: 6.00 Build 0)  -->
<svg version="1.1" xmlns="http://www.w3.org/2000/svg" xmlns:xlink="http://www.w3.org/1999/xlink" x="0px" y="0px"
	 viewBox="0 0 1500 1500" style="enable-background:new 0 0 1500 1500;" xml:space="preserve">
<style type="text/css">
	.st0{stroke:#000000;stroke-width:3;stroke-miterlimit:10;}
	.st1{fill:#317ED6;}
	.st2{fill:#763327;}
</style>
<g id="Pic">
</g>
<g id="Calque">
</g>
<g id="Layer_3">
</g>
<g id="Layer_4">
	<g>
		<polygon class="st0" points="1162.46,869.67 1018.29,716.8 919.51,558.61 790.04,458.52 740.9,515.86 674.97,530.98 
			625.77,607.09 630.04,799.03 587.83,620.63 624.37,558.12 551.9,580.64 496.21,559.63 209.55,798.01 257.83,727.24 478.46,538.92 
			574.94,557.37 705.4,441.22 744.23,405.63 880.75,475.79 1012.98,615.52 1056.84,708.97 		"/>
		<path class="st1" d="M179.89,894.45c19.94-11.44,40.24-14.97,59.38-19.68c36.74-9.04,74.5-12.37,112.63-10.06
			c55.82,3.38,110.94,11.18,165.51,23.41c53.83,12.07,107.96,22.81,161.65,35.44c50.55,11.89,101.42,22.06,152.72,29.71
			c74.12,11.04,148.56,15.92,223.66,10.92c43.44-2.9,86.07-9.19,127.75-21.07c55.14-15.71,106.62-38.94,149.36-78.57
			c4.13-3.83,8.87-10.97,14.79-6.63c5.08,3.73,1.73,10.84-0.31,16.58c-23,64.82-73.33,101.3-133.6,125.8
			c-81.23,33.01-166.24,39.97-253.3,34.96c-77.84-4.48-153.25-21.01-227.94-40.95c-68.38-18.26-135.73-40.38-203.54-60.77
			c-86.89-26.13-174.81-45.89-266.36-43.87c-21.17,0.47-42.27,0.92-63.03,5.86C193.75,896.82,187.91,897.68,179.89,894.45z"/>
		<path class="st2" d="M150,918.96c74.61-16.05,145.27-17.54,216.69-4.55c56.85,10.34,110.09,31.13,163.87,50.71
			c80.71,29.39,160.62,60.98,244.26,81.84c54.83,13.68,110.01,23.59,166.57,25.18c3.42,0.1,7.7-0.85,10.87,5.18
			c-25.77,9.21-52.1,13.37-78.55,15.47c-99.59,7.93-193.36-14.6-284.12-54.34c-68.37-29.94-136.1-61.66-207.06-85.26
			c-68.34-22.72-138.17-36.15-210.72-30.33C165.77,923.34,159.33,924.64,150,918.96z"/>
	</g>
</g>
</svg>
