<svg xmlns="http://www.w3.org/2000/svg" viewBox="0 0 1500 1500" xmlns:v="https://vecta.io/nano"><path stroke="#000" stroke-miterlimit="10" stroke-width="3" d="M1162.46 869.67 1018.29 716.8l-98.78-158.19-129.47-100.09-49.14 57.34-65.93 15.12-49.2 76.11 4.27 191.94-42.21-178.4 36.54-62.51-72.47 22.52-55.69-21.01-286.66 238.38 48.28-70.77 220.63-188.32 96.48 18.45L705.4 441.22l38.83-35.59 136.52 70.16 132.23 139.73 43.86 93.45z"/><path fill="#317ed6" d="M179.89 894.45c19.94-11.44 40.24-14.97 59.38-19.68 36.74-9.04 74.5-12.37 112.63-10.06 55.82 3.38 110.94 11.18 165.51 23.41l161.65 35.44c50.55 11.89 101.42 22.06 152.72 29.71 74.12 11.04 148.56 15.92 223.66 10.92 43.44-2.9 86.07-9.19 127.75-21.07 55.14-15.71 106.62-38.94 149.36-78.57 4.13-3.83 8.87-10.97 14.79-6.63 5.08 3.73 1.73 10.84-.31 16.58-23 64.82-73.33 101.3-133.6 125.8-81.23 33.01-166.24 39.97-253.3 34.96-77.84-4.48-153.25-21.01-227.94-40.95-68.38-18.26-135.73-40.38-203.54-60.77-86.89-26.13-174.81-45.89-266.36-43.87-21.17.47-42.27.92-63.03 5.86-5.51 1.29-11.35 2.15-19.37-1.08z"/><path fill="#763327" d="M150 918.96c74.61-16.05 145.27-17.54 216.69-4.55 56.85 10.34 110.09 31.13 163.87 50.71 80.71 29.39 160.62 60.98 244.26 81.84 54.83 13.68 110.01 23.59 166.57 25.18 3.42.1 7.7-.85 10.87 5.18-25.77 9.21-52.1 13.37-78.55 15.47-99.59 7.93-193.36-14.6-284.12-54.34-68.37-29.94-136.1-61.66-207.06-85.26-68.34-22.72-138.17-36.15-210.72-30.33-6.04.48-12.48 1.78-21.81-3.9z"/></svg>