<?xml version="1.0" encoding="utf-8"?>
<!-- Generator: Adobe Illustrator 27.2.0, SVG Export Plug-In . SVG Version: 6.00 Build 0)  -->
<svg version="1.1" id="Layer_1" xmlns="http://www.w3.org/2000/svg" xmlns:xlink="http://www.w3.org/1999/xlink" x="0px" y="0px"
	 viewBox="0 0 500 500" style="enable-background:new 0 0 500 500;" xml:space="preserve">
<style type="text/css">
	.st0{fill:#FFFFFF;}
</style>
<path class="st0" d="M166.5,325.1c-41.1-8.5-66.3-37.3-66.5-74.6c-0.1-37.2,25.3-66.3,66.6-74.8c-6-1.7-10.5-2.8-14.9-4.3
	c-35.3-11.8-55.7-45.3-50.4-82.5c5.1-35.5,35.3-62.8,72.1-63.3c51.2-0.7,102.4-0.7,153.6,0c38.7,0.5,69,30.6,72.7,70.1
	c3.3,35.2-21.7,68.5-58,77.4c-2.4,0.6-4.7,1.4-8,2.3c42.1,10.4,65.8,37.4,66.2,74.4c0.4,34-22.7,64.3-56.1,72.7
	c-21,5.3-40.9,2.3-59.3-9.2c-18.3-11.5-28.2-29.1-35-49c0,45.1,0.2,90.2-0.1,135.2c-0.2,38.7-25.1,68-62.8,74.4
	c-38.7,6.6-76.8-19.1-84.8-57.2c-8.3-39.4,14.9-78,53.3-88.4C158.5,327.4,161.9,326.4,166.5,325.1z M249.9,236.1
	c9.1-31.4,29.1-52,61.2-60.3c-20.2,0-40.5,0-61.2,0C249.9,196.5,249.9,216.3,249.9,236.1z"/>
</svg>
