<?xml version="1.0" encoding="UTF-8"?>
<svg enable-background="new 0 0 1502 1502" version="1.1" viewBox="0 0 1502 1502" xml:space="preserve" xmlns="http://www.w3.org/2000/svg">
	<path d="m744.4 1501c-3.1-0.7-6.2-1.3-9.2-2.1-27.4-7.3-46.4-31.1-46.5-59.4-0.3-42.2-0.3-84.4 0-126.7 0.2-32.6 26.1-60 57.4-61.6 34.6-1.8 62.9 21.4 67 55 0.3 2.5 0.3 5.1 0.3 7.7 0 41.4 0.1 82.7 0 124.1-0.1 29.5-18.8 53.6-46.9 61-2.9 0.8-5.9 1.3-8.9 2h-13.2z"/>
	<path d="m757.6 1c6.8 2.1 14.1 3.2 20.4 6.4 22 10.9 34.7 29.1 35.1 53.7 0.7 43.3 0.6 86.6 0.1 129.9-0.4 31.2-26.4 58-56.9 59.8-33.5 2-62-20.2-66.9-52.1-0.6-4.1-0.8-8.3-0.8-12.4-0.1-40 0.4-80.1-0.2-120.1-0.5-34.6 24.6-61.1 54.7-64.7 0.5-0.1 0.9-0.4 1.3-0.5h13.2z"/>
	<path d="m1 744.4c0.7-3.1 1.3-6.2 2.1-9.2 7-26.9 30.6-46.2 58.3-46.5 43.1-0.5 86.1-0.5 129.2 0 31.6 0.4 58.3 26.3 60.1 56.9 1.9 33.7-20.1 61.9-52.5 66.9-3.8 0.6-7.8 0.8-11.7 0.8-40 0.1-80.1-0.5-120.1 0.2-35.5 0.6-61.7-25.3-65-54.7-0.1-0.5-0.4-0.9-0.5-1.3 0.1-4.3 0.1-8.7 0.1-13.1z"/>
	<path d="m1501 757.6c-0.6 2.6-1.1 5.2-1.7 7.8-6.5 27.4-30.5 47.6-58.8 47.9-43.1 0.5-86.1 0.5-129.2 0-31.6-0.4-58.4-26.3-60.1-56.9-1.9-33.7 20.1-61.9 52.5-66.9 3.8-0.6 7.8-0.8 11.7-0.8 40.1-0.1 80.3 0.4 120.4-0.2 35.2-0.5 61.3 25.2 64.6 54.7 0.1 0.5 0.4 0.9 0.5 1.3 0.1 4.3 0.1 8.7 0.1 13.1z"/>
	<path d="m376 750.7c0.2-207.1 168.2-374.9 375.2-374.7 207.2 0.2 375.3 168.4 374.8 375.4-0.4 207.2-168.5 374.9-375.3 374.6-207.2-0.3-374.9-168.3-374.7-375.3zm125.1 0.1c-0.2 138.1 111.5 250 249.8 250.2 138 0.2 249.7-111.3 250.1-249.5 0.4-138-111.2-250-249.6-250.3-138.1-0.5-250.1 111.3-250.3 249.6z"/>
	<path d="m416 353.5c0 25.2-15 48.3-38.6 57.6-24.8 9.8-47.9 5.8-67.1-12.7-30.5-29.5-60.5-59.6-90.1-90-17.9-18.4-22.8-40.7-14-64.9 8.7-24.1 26.8-37.7 52-40.8 18.8-2.3 35.8 3.3 49.3 16.7 30.6 30.1 60.9 60.6 91.2 91.1 11.7 11.8 17 26.5 17.3 43z"/>
	<path d="m416 1148.6c-0.3 16.5-5.7 31.2-17.4 43-30.1 30.4-60.3 60.8-90.9 90.8-23.9 23.5-63.1 22.9-86.9-0.7-24-23.9-25.3-62.7-1.8-86.8 30.3-31.1 60.8-62.1 92.2-92.1 19.1-18.3 42.5-21.6 66.9-11.6 23.3 9.6 38 32.5 37.9 57.4z"/>
	<path d="m1299.7 264.8c-0.2 16.5-5.6 31.1-17.3 42.9-30.2 30.5-60.5 61-91.1 91.1-18.3 18.1-46.6 22.1-69.9 10.9s-37.3-35.6-35.1-61.2c1.3-15.3 7.3-28.5 18.1-39.3 29.5-29.6 58.8-59.2 88.6-88.5 18.4-18.1 40.7-23.3 65.1-14.8 24.3 8.6 37.7 26.7 41.3 52.1 0.3 2.3 0.2 4.5 0.3 6.8z"/>
	<path d="m1146.3 1085.9c18.7 0.4 33.4 5.7 45.2 17.3 30.4 30 60.8 60.1 90.5 90.7 17.8 18.3 22.4 40.7 13.8 64.6-8.7 24-26.8 37.7-52.1 40.8-18.8 2.2-35.7-3.4-49.3-16.7-30.6-30.1-61.2-60.3-91-91.2-18.6-19.3-22.6-42.8-12.1-67.4 10.5-24.8 30.5-36.7 55-38.1z"/>
</svg>
